G75*
%MOIN*%
%OFA0B0*%
%FSLAX25Y25*%
%IPPOS*%
%LPD*%
%AMOC8*
5,1,8,0,0,1.08239X$1,22.5*
%
%ADD10C,0.01600*%
%ADD11C,0.00600*%
%ADD12C,0.00500*%
%ADD13R,0.03400X0.02400*%
%ADD14C,0.00800*%
%ADD15C,0.00400*%
%ADD16C,0.00200*%
%ADD17C,0.00700*%
%ADD18R,0.02500X0.03000*%
%ADD19R,0.11000X0.05000*%
%ADD20C,0.00000*%
%ADD21C,0.01000*%
%ADD22C,0.01200*%
%ADD23R,0.02000X0.01500*%
%ADD24R,0.11000X0.03000*%
%ADD25R,0.04000X0.01500*%
D10*
X0167573Y0119764D02*
X0176235Y0119764D01*
X0176235Y0128425D01*
X0167573Y0128425D01*
X0167573Y0119764D01*
X0269904Y0102594D02*
X0293904Y0102594D01*
X0269904Y0102594D01*
X0269697Y0102591D01*
X0269490Y0102584D01*
X0269284Y0102571D01*
X0269077Y0102554D01*
X0268872Y0102531D01*
X0268666Y0102503D01*
X0268462Y0102471D01*
X0268258Y0102433D01*
X0268056Y0102391D01*
X0267854Y0102343D01*
X0267654Y0102291D01*
X0267455Y0102234D01*
X0267258Y0102172D01*
X0267062Y0102105D01*
X0266868Y0102033D01*
X0266675Y0101957D01*
X0266485Y0101876D01*
X0266296Y0101790D01*
X0266110Y0101700D01*
X0265926Y0101606D01*
X0265744Y0101506D01*
X0265565Y0101403D01*
X0265388Y0101295D01*
X0265214Y0101183D01*
X0265043Y0101067D01*
X0264874Y0100946D01*
X0264709Y0100822D01*
X0264547Y0100693D01*
X0264388Y0100561D01*
X0264232Y0100425D01*
X0264079Y0100285D01*
X0263930Y0100141D01*
X0263785Y0099994D01*
X0263643Y0099843D01*
X0263505Y0099689D01*
X0263370Y0099531D01*
X0263240Y0099371D01*
X0263114Y0099207D01*
X0262991Y0099040D01*
X0262873Y0098870D01*
X0262758Y0098697D01*
X0262648Y0098522D01*
X0262543Y0098344D01*
X0262441Y0098163D01*
X0262345Y0097981D01*
X0262252Y0097795D01*
X0262164Y0097608D01*
X0262081Y0097418D01*
X0262002Y0097227D01*
X0261928Y0097034D01*
X0261859Y0096838D01*
X0261795Y0096642D01*
X0261735Y0096444D01*
X0261680Y0096244D01*
X0261630Y0096043D01*
X0261585Y0095841D01*
X0261545Y0095638D01*
X0261510Y0095434D01*
X0261480Y0095229D01*
X0261455Y0095024D01*
X0261435Y0094818D01*
X0261420Y0094611D01*
X0261410Y0094404D01*
X0261405Y0094197D01*
X0261405Y0093991D01*
X0261410Y0093784D01*
X0261420Y0093577D01*
X0261435Y0093370D01*
X0261455Y0093164D01*
X0261480Y0092959D01*
X0261510Y0092754D01*
X0261545Y0092550D01*
X0261585Y0092347D01*
X0261630Y0092145D01*
X0261680Y0091944D01*
X0261735Y0091744D01*
X0261795Y0091546D01*
X0261859Y0091350D01*
X0261928Y0091154D01*
X0262002Y0090961D01*
X0262081Y0090770D01*
X0262164Y0090580D01*
X0262252Y0090393D01*
X0262345Y0090207D01*
X0262441Y0090025D01*
X0262543Y0089844D01*
X0262648Y0089666D01*
X0262758Y0089491D01*
X0262873Y0089318D01*
X0262991Y0089148D01*
X0263114Y0088981D01*
X0263240Y0088817D01*
X0263370Y0088657D01*
X0263505Y0088499D01*
X0263643Y0088345D01*
X0263785Y0088194D01*
X0263930Y0088047D01*
X0264079Y0087903D01*
X0264232Y0087763D01*
X0264388Y0087627D01*
X0264547Y0087495D01*
X0264709Y0087366D01*
X0264874Y0087242D01*
X0265043Y0087121D01*
X0265214Y0087005D01*
X0265388Y0086893D01*
X0265565Y0086785D01*
X0265744Y0086682D01*
X0265926Y0086582D01*
X0266110Y0086488D01*
X0266296Y0086398D01*
X0266485Y0086312D01*
X0266675Y0086231D01*
X0266868Y0086155D01*
X0267062Y0086083D01*
X0267258Y0086016D01*
X0267455Y0085954D01*
X0267654Y0085897D01*
X0267854Y0085845D01*
X0268056Y0085797D01*
X0268258Y0085755D01*
X0268462Y0085717D01*
X0268666Y0085685D01*
X0268872Y0085657D01*
X0269077Y0085634D01*
X0269284Y0085617D01*
X0269490Y0085604D01*
X0269697Y0085597D01*
X0269904Y0085594D01*
X0293904Y0085594D01*
X0269904Y0085594D01*
X0269697Y0085597D01*
X0269490Y0085604D01*
X0269284Y0085617D01*
X0269077Y0085634D01*
X0268872Y0085657D01*
X0268666Y0085685D01*
X0268462Y0085717D01*
X0268258Y0085755D01*
X0268056Y0085797D01*
X0267854Y0085845D01*
X0267654Y0085897D01*
X0267455Y0085954D01*
X0267258Y0086016D01*
X0267062Y0086083D01*
X0266868Y0086155D01*
X0266675Y0086231D01*
X0266485Y0086312D01*
X0266296Y0086398D01*
X0266110Y0086488D01*
X0265926Y0086582D01*
X0265744Y0086682D01*
X0265565Y0086785D01*
X0265388Y0086893D01*
X0265214Y0087005D01*
X0265043Y0087121D01*
X0264874Y0087242D01*
X0264709Y0087366D01*
X0264547Y0087495D01*
X0264388Y0087627D01*
X0264232Y0087763D01*
X0264079Y0087903D01*
X0263930Y0088047D01*
X0263785Y0088194D01*
X0263643Y0088345D01*
X0263505Y0088499D01*
X0263370Y0088657D01*
X0263240Y0088817D01*
X0263114Y0088981D01*
X0262991Y0089148D01*
X0262873Y0089318D01*
X0262758Y0089491D01*
X0262648Y0089666D01*
X0262543Y0089844D01*
X0262441Y0090025D01*
X0262345Y0090207D01*
X0262252Y0090393D01*
X0262164Y0090580D01*
X0262081Y0090770D01*
X0262002Y0090961D01*
X0261928Y0091154D01*
X0261859Y0091350D01*
X0261795Y0091546D01*
X0261735Y0091744D01*
X0261680Y0091944D01*
X0261630Y0092145D01*
X0261585Y0092347D01*
X0261545Y0092550D01*
X0261510Y0092754D01*
X0261480Y0092959D01*
X0261455Y0093164D01*
X0261435Y0093370D01*
X0261420Y0093577D01*
X0261410Y0093784D01*
X0261405Y0093991D01*
X0261405Y0094197D01*
X0261410Y0094404D01*
X0261420Y0094611D01*
X0261435Y0094818D01*
X0261455Y0095024D01*
X0261480Y0095229D01*
X0261510Y0095434D01*
X0261545Y0095638D01*
X0261585Y0095841D01*
X0261630Y0096043D01*
X0261680Y0096244D01*
X0261735Y0096444D01*
X0261795Y0096642D01*
X0261859Y0096838D01*
X0261928Y0097034D01*
X0262002Y0097227D01*
X0262081Y0097418D01*
X0262164Y0097608D01*
X0262252Y0097795D01*
X0262345Y0097981D01*
X0262441Y0098163D01*
X0262543Y0098344D01*
X0262648Y0098522D01*
X0262758Y0098697D01*
X0262873Y0098870D01*
X0262991Y0099040D01*
X0263114Y0099207D01*
X0263240Y0099371D01*
X0263370Y0099531D01*
X0263505Y0099689D01*
X0263643Y0099843D01*
X0263785Y0099994D01*
X0263930Y0100141D01*
X0264079Y0100285D01*
X0264232Y0100425D01*
X0264388Y0100561D01*
X0264547Y0100693D01*
X0264709Y0100822D01*
X0264874Y0100946D01*
X0265043Y0101067D01*
X0265214Y0101183D01*
X0265388Y0101295D01*
X0265565Y0101403D01*
X0265744Y0101506D01*
X0265926Y0101606D01*
X0266110Y0101700D01*
X0266296Y0101790D01*
X0266485Y0101876D01*
X0266675Y0101957D01*
X0266868Y0102033D01*
X0267062Y0102105D01*
X0267258Y0102172D01*
X0267455Y0102234D01*
X0267654Y0102291D01*
X0267854Y0102343D01*
X0268056Y0102391D01*
X0268258Y0102433D01*
X0268462Y0102471D01*
X0268666Y0102503D01*
X0268872Y0102531D01*
X0269077Y0102554D01*
X0269284Y0102571D01*
X0269490Y0102584D01*
X0269697Y0102591D01*
X0269904Y0102594D01*
X0293904Y0102594D02*
X0294111Y0102591D01*
X0294318Y0102584D01*
X0294524Y0102571D01*
X0294731Y0102554D01*
X0294936Y0102531D01*
X0295142Y0102503D01*
X0295346Y0102471D01*
X0295550Y0102433D01*
X0295752Y0102391D01*
X0295954Y0102343D01*
X0296154Y0102291D01*
X0296353Y0102234D01*
X0296550Y0102172D01*
X0296746Y0102105D01*
X0296940Y0102033D01*
X0297133Y0101957D01*
X0297323Y0101876D01*
X0297512Y0101790D01*
X0297698Y0101700D01*
X0297882Y0101606D01*
X0298064Y0101506D01*
X0298243Y0101403D01*
X0298420Y0101295D01*
X0298594Y0101183D01*
X0298765Y0101067D01*
X0298934Y0100946D01*
X0299099Y0100822D01*
X0299261Y0100693D01*
X0299420Y0100561D01*
X0299576Y0100425D01*
X0299729Y0100285D01*
X0299878Y0100141D01*
X0300023Y0099994D01*
X0300165Y0099843D01*
X0300303Y0099689D01*
X0300438Y0099531D01*
X0300568Y0099371D01*
X0300694Y0099207D01*
X0300817Y0099040D01*
X0300935Y0098870D01*
X0301050Y0098697D01*
X0301160Y0098522D01*
X0301265Y0098344D01*
X0301367Y0098163D01*
X0301463Y0097981D01*
X0301556Y0097795D01*
X0301644Y0097608D01*
X0301727Y0097418D01*
X0301806Y0097227D01*
X0301880Y0097034D01*
X0301949Y0096838D01*
X0302013Y0096642D01*
X0302073Y0096444D01*
X0302128Y0096244D01*
X0302178Y0096043D01*
X0302223Y0095841D01*
X0302263Y0095638D01*
X0302298Y0095434D01*
X0302328Y0095229D01*
X0302353Y0095024D01*
X0302373Y0094818D01*
X0302388Y0094611D01*
X0302398Y0094404D01*
X0302403Y0094197D01*
X0302403Y0093991D01*
X0302398Y0093784D01*
X0302388Y0093577D01*
X0302373Y0093370D01*
X0302353Y0093164D01*
X0302328Y0092959D01*
X0302298Y0092754D01*
X0302263Y0092550D01*
X0302223Y0092347D01*
X0302178Y0092145D01*
X0302128Y0091944D01*
X0302073Y0091744D01*
X0302013Y0091546D01*
X0301949Y0091350D01*
X0301880Y0091154D01*
X0301806Y0090961D01*
X0301727Y0090770D01*
X0301644Y0090580D01*
X0301556Y0090393D01*
X0301463Y0090207D01*
X0301367Y0090025D01*
X0301265Y0089844D01*
X0301160Y0089666D01*
X0301050Y0089491D01*
X0300935Y0089318D01*
X0300817Y0089148D01*
X0300694Y0088981D01*
X0300568Y0088817D01*
X0300438Y0088657D01*
X0300303Y0088499D01*
X0300165Y0088345D01*
X0300023Y0088194D01*
X0299878Y0088047D01*
X0299729Y0087903D01*
X0299576Y0087763D01*
X0299420Y0087627D01*
X0299261Y0087495D01*
X0299099Y0087366D01*
X0298934Y0087242D01*
X0298765Y0087121D01*
X0298594Y0087005D01*
X0298420Y0086893D01*
X0298243Y0086785D01*
X0298064Y0086682D01*
X0297882Y0086582D01*
X0297698Y0086488D01*
X0297512Y0086398D01*
X0297323Y0086312D01*
X0297133Y0086231D01*
X0296940Y0086155D01*
X0296746Y0086083D01*
X0296550Y0086016D01*
X0296353Y0085954D01*
X0296154Y0085897D01*
X0295954Y0085845D01*
X0295752Y0085797D01*
X0295550Y0085755D01*
X0295346Y0085717D01*
X0295142Y0085685D01*
X0294936Y0085657D01*
X0294731Y0085634D01*
X0294524Y0085617D01*
X0294318Y0085604D01*
X0294111Y0085597D01*
X0293904Y0085594D01*
X0294111Y0085597D01*
X0294318Y0085604D01*
X0294524Y0085617D01*
X0294731Y0085634D01*
X0294936Y0085657D01*
X0295142Y0085685D01*
X0295346Y0085717D01*
X0295550Y0085755D01*
X0295752Y0085797D01*
X0295954Y0085845D01*
X0296154Y0085897D01*
X0296353Y0085954D01*
X0296550Y0086016D01*
X0296746Y0086083D01*
X0296940Y0086155D01*
X0297133Y0086231D01*
X0297323Y0086312D01*
X0297512Y0086398D01*
X0297698Y0086488D01*
X0297882Y0086582D01*
X0298064Y0086682D01*
X0298243Y0086785D01*
X0298420Y0086893D01*
X0298594Y0087005D01*
X0298765Y0087121D01*
X0298934Y0087242D01*
X0299099Y0087366D01*
X0299261Y0087495D01*
X0299420Y0087627D01*
X0299576Y0087763D01*
X0299729Y0087903D01*
X0299878Y0088047D01*
X0300023Y0088194D01*
X0300165Y0088345D01*
X0300303Y0088499D01*
X0300438Y0088657D01*
X0300568Y0088817D01*
X0300694Y0088981D01*
X0300817Y0089148D01*
X0300935Y0089318D01*
X0301050Y0089491D01*
X0301160Y0089666D01*
X0301265Y0089844D01*
X0301367Y0090025D01*
X0301463Y0090207D01*
X0301556Y0090393D01*
X0301644Y0090580D01*
X0301727Y0090770D01*
X0301806Y0090961D01*
X0301880Y0091154D01*
X0301949Y0091350D01*
X0302013Y0091546D01*
X0302073Y0091744D01*
X0302128Y0091944D01*
X0302178Y0092145D01*
X0302223Y0092347D01*
X0302263Y0092550D01*
X0302298Y0092754D01*
X0302328Y0092959D01*
X0302353Y0093164D01*
X0302373Y0093370D01*
X0302388Y0093577D01*
X0302398Y0093784D01*
X0302403Y0093991D01*
X0302403Y0094197D01*
X0302398Y0094404D01*
X0302388Y0094611D01*
X0302373Y0094818D01*
X0302353Y0095024D01*
X0302328Y0095229D01*
X0302298Y0095434D01*
X0302263Y0095638D01*
X0302223Y0095841D01*
X0302178Y0096043D01*
X0302128Y0096244D01*
X0302073Y0096444D01*
X0302013Y0096642D01*
X0301949Y0096838D01*
X0301880Y0097034D01*
X0301806Y0097227D01*
X0301727Y0097418D01*
X0301644Y0097608D01*
X0301556Y0097795D01*
X0301463Y0097981D01*
X0301367Y0098163D01*
X0301265Y0098344D01*
X0301160Y0098522D01*
X0301050Y0098697D01*
X0300935Y0098870D01*
X0300817Y0099040D01*
X0300694Y0099207D01*
X0300568Y0099371D01*
X0300438Y0099531D01*
X0300303Y0099689D01*
X0300165Y0099843D01*
X0300023Y0099994D01*
X0299878Y0100141D01*
X0299729Y0100285D01*
X0299576Y0100425D01*
X0299420Y0100561D01*
X0299261Y0100693D01*
X0299099Y0100822D01*
X0298934Y0100946D01*
X0298765Y0101067D01*
X0298594Y0101183D01*
X0298420Y0101295D01*
X0298243Y0101403D01*
X0298064Y0101506D01*
X0297882Y0101606D01*
X0297698Y0101700D01*
X0297512Y0101790D01*
X0297323Y0101876D01*
X0297133Y0101957D01*
X0296940Y0102033D01*
X0296746Y0102105D01*
X0296550Y0102172D01*
X0296353Y0102234D01*
X0296154Y0102291D01*
X0295954Y0102343D01*
X0295752Y0102391D01*
X0295550Y0102433D01*
X0295346Y0102471D01*
X0295142Y0102503D01*
X0294936Y0102531D01*
X0294731Y0102554D01*
X0294524Y0102571D01*
X0294318Y0102584D01*
X0294111Y0102591D01*
X0293904Y0102594D01*
D11*
X0293904Y0100594D02*
X0269904Y0100594D01*
X0293904Y0100594D01*
X0284404Y0097094D02*
X0284404Y0094094D01*
X0286904Y0094094D01*
X0284404Y0094094D01*
X0284404Y0091094D01*
X0284404Y0094094D01*
X0284404Y0097094D01*
X0282904Y0097094D02*
X0282904Y0091094D01*
X0280904Y0091094D01*
X0280904Y0097094D01*
X0282904Y0097094D01*
X0282904Y0091094D01*
X0280904Y0091094D01*
X0280904Y0097094D01*
X0282904Y0097094D01*
X0279404Y0097094D02*
X0279404Y0094094D01*
X0276904Y0094094D01*
X0279404Y0094094D01*
X0279404Y0091094D01*
X0279404Y0094094D01*
X0279404Y0097094D01*
X0269904Y0100594D02*
X0269744Y0100592D01*
X0269585Y0100586D01*
X0269426Y0100576D01*
X0269267Y0100563D01*
X0269108Y0100545D01*
X0268950Y0100524D01*
X0268793Y0100498D01*
X0268636Y0100469D01*
X0268480Y0100436D01*
X0268325Y0100399D01*
X0268170Y0100359D01*
X0268017Y0100314D01*
X0267865Y0100266D01*
X0267714Y0100214D01*
X0267565Y0100158D01*
X0267417Y0100099D01*
X0267270Y0100036D01*
X0267125Y0099970D01*
X0266982Y0099900D01*
X0266840Y0099826D01*
X0266700Y0099750D01*
X0266562Y0099669D01*
X0266427Y0099586D01*
X0266293Y0099499D01*
X0266161Y0099408D01*
X0266032Y0099315D01*
X0265905Y0099218D01*
X0265780Y0099119D01*
X0265658Y0099016D01*
X0265539Y0098910D01*
X0265422Y0098802D01*
X0265308Y0098690D01*
X0265196Y0098576D01*
X0265088Y0098459D01*
X0264982Y0098340D01*
X0264879Y0098218D01*
X0264780Y0098093D01*
X0264683Y0097966D01*
X0264590Y0097837D01*
X0264499Y0097705D01*
X0264412Y0097571D01*
X0264329Y0097436D01*
X0264248Y0097298D01*
X0264172Y0097158D01*
X0264098Y0097016D01*
X0264028Y0096873D01*
X0263962Y0096728D01*
X0263899Y0096581D01*
X0263840Y0096433D01*
X0263784Y0096284D01*
X0263732Y0096133D01*
X0263684Y0095981D01*
X0263639Y0095828D01*
X0263599Y0095673D01*
X0263562Y0095518D01*
X0263529Y0095362D01*
X0263500Y0095205D01*
X0263474Y0095048D01*
X0263453Y0094890D01*
X0263435Y0094731D01*
X0263422Y0094572D01*
X0263412Y0094413D01*
X0263406Y0094254D01*
X0263404Y0094094D01*
X0263406Y0093934D01*
X0263412Y0093775D01*
X0263422Y0093616D01*
X0263435Y0093457D01*
X0263453Y0093298D01*
X0263474Y0093140D01*
X0263500Y0092983D01*
X0263529Y0092826D01*
X0263562Y0092670D01*
X0263599Y0092515D01*
X0263639Y0092360D01*
X0263684Y0092207D01*
X0263732Y0092055D01*
X0263784Y0091904D01*
X0263840Y0091755D01*
X0263899Y0091607D01*
X0263962Y0091460D01*
X0264028Y0091315D01*
X0264098Y0091172D01*
X0264172Y0091030D01*
X0264248Y0090890D01*
X0264329Y0090752D01*
X0264412Y0090617D01*
X0264499Y0090483D01*
X0264590Y0090351D01*
X0264683Y0090222D01*
X0264780Y0090095D01*
X0264879Y0089970D01*
X0264982Y0089848D01*
X0265088Y0089729D01*
X0265196Y0089612D01*
X0265308Y0089498D01*
X0265422Y0089386D01*
X0265539Y0089278D01*
X0265658Y0089172D01*
X0265780Y0089069D01*
X0265905Y0088970D01*
X0266032Y0088873D01*
X0266161Y0088780D01*
X0266293Y0088689D01*
X0266427Y0088602D01*
X0266562Y0088519D01*
X0266700Y0088438D01*
X0266840Y0088362D01*
X0266982Y0088288D01*
X0267125Y0088218D01*
X0267270Y0088152D01*
X0267417Y0088089D01*
X0267565Y0088030D01*
X0267714Y0087974D01*
X0267865Y0087922D01*
X0268017Y0087874D01*
X0268170Y0087829D01*
X0268325Y0087789D01*
X0268480Y0087752D01*
X0268636Y0087719D01*
X0268793Y0087690D01*
X0268950Y0087664D01*
X0269108Y0087643D01*
X0269267Y0087625D01*
X0269426Y0087612D01*
X0269585Y0087602D01*
X0269744Y0087596D01*
X0269904Y0087594D01*
X0293904Y0087594D01*
X0269904Y0087594D01*
X0272825Y0082453D02*
X0280825Y0082453D01*
X0280885Y0082451D01*
X0280946Y0082446D01*
X0281005Y0082437D01*
X0281064Y0082424D01*
X0281123Y0082408D01*
X0281180Y0082388D01*
X0281235Y0082365D01*
X0281290Y0082338D01*
X0281342Y0082309D01*
X0281393Y0082276D01*
X0281442Y0082240D01*
X0281488Y0082202D01*
X0281532Y0082160D01*
X0281574Y0082116D01*
X0281612Y0082070D01*
X0281648Y0082021D01*
X0281681Y0081970D01*
X0281710Y0081918D01*
X0281737Y0081863D01*
X0281760Y0081808D01*
X0281780Y0081751D01*
X0281796Y0081692D01*
X0281809Y0081633D01*
X0281818Y0081574D01*
X0281823Y0081513D01*
X0281825Y0081453D01*
X0281825Y0064453D01*
X0282495Y0064492D02*
X0282495Y0081492D01*
X0282495Y0064492D01*
X0282497Y0064432D01*
X0282502Y0064371D01*
X0282511Y0064312D01*
X0282524Y0064253D01*
X0282540Y0064194D01*
X0282560Y0064137D01*
X0282583Y0064082D01*
X0282610Y0064027D01*
X0282639Y0063975D01*
X0282672Y0063924D01*
X0282708Y0063875D01*
X0282746Y0063829D01*
X0282788Y0063785D01*
X0282832Y0063743D01*
X0282878Y0063705D01*
X0282927Y0063669D01*
X0282978Y0063636D01*
X0283030Y0063607D01*
X0283085Y0063580D01*
X0283140Y0063557D01*
X0283197Y0063537D01*
X0283256Y0063521D01*
X0283315Y0063508D01*
X0283374Y0063499D01*
X0283435Y0063494D01*
X0283495Y0063492D01*
X0291495Y0063492D01*
X0283495Y0063492D01*
X0283435Y0063494D01*
X0283374Y0063499D01*
X0283315Y0063508D01*
X0283256Y0063521D01*
X0283197Y0063537D01*
X0283140Y0063557D01*
X0283085Y0063580D01*
X0283030Y0063607D01*
X0282978Y0063636D01*
X0282927Y0063669D01*
X0282878Y0063705D01*
X0282832Y0063743D01*
X0282788Y0063785D01*
X0282746Y0063829D01*
X0282708Y0063875D01*
X0282672Y0063924D01*
X0282639Y0063975D01*
X0282610Y0064027D01*
X0282583Y0064082D01*
X0282560Y0064137D01*
X0282540Y0064194D01*
X0282524Y0064253D01*
X0282511Y0064312D01*
X0282502Y0064371D01*
X0282497Y0064432D01*
X0282495Y0064492D01*
X0281825Y0064453D02*
X0281823Y0064393D01*
X0281818Y0064332D01*
X0281809Y0064273D01*
X0281796Y0064214D01*
X0281780Y0064155D01*
X0281760Y0064098D01*
X0281737Y0064043D01*
X0281710Y0063988D01*
X0281681Y0063936D01*
X0281648Y0063885D01*
X0281612Y0063836D01*
X0281574Y0063790D01*
X0281532Y0063746D01*
X0281488Y0063704D01*
X0281442Y0063666D01*
X0281393Y0063630D01*
X0281342Y0063597D01*
X0281290Y0063568D01*
X0281235Y0063541D01*
X0281180Y0063518D01*
X0281123Y0063498D01*
X0281064Y0063482D01*
X0281005Y0063469D01*
X0280946Y0063460D01*
X0280885Y0063455D01*
X0280825Y0063453D01*
X0272825Y0063453D01*
X0272765Y0063455D01*
X0272704Y0063460D01*
X0272645Y0063469D01*
X0272586Y0063482D01*
X0272527Y0063498D01*
X0272470Y0063518D01*
X0272415Y0063541D01*
X0272360Y0063568D01*
X0272308Y0063597D01*
X0272257Y0063630D01*
X0272208Y0063666D01*
X0272162Y0063704D01*
X0272118Y0063746D01*
X0272076Y0063790D01*
X0272038Y0063836D01*
X0272002Y0063885D01*
X0271969Y0063936D01*
X0271940Y0063988D01*
X0271913Y0064043D01*
X0271890Y0064098D01*
X0271870Y0064155D01*
X0271854Y0064214D01*
X0271841Y0064273D01*
X0271832Y0064332D01*
X0271827Y0064393D01*
X0271825Y0064453D01*
X0271825Y0081453D01*
X0271827Y0081513D01*
X0271832Y0081574D01*
X0271841Y0081633D01*
X0271854Y0081692D01*
X0271870Y0081751D01*
X0271890Y0081808D01*
X0271913Y0081863D01*
X0271940Y0081918D01*
X0271969Y0081970D01*
X0272002Y0082021D01*
X0272038Y0082070D01*
X0272076Y0082116D01*
X0272118Y0082160D01*
X0272162Y0082202D01*
X0272208Y0082240D01*
X0272257Y0082276D01*
X0272308Y0082309D01*
X0272360Y0082338D01*
X0272415Y0082365D01*
X0272470Y0082388D01*
X0272527Y0082408D01*
X0272586Y0082424D01*
X0272645Y0082437D01*
X0272704Y0082446D01*
X0272765Y0082451D01*
X0272825Y0082453D01*
X0283495Y0082492D02*
X0291495Y0082492D01*
X0283495Y0082492D01*
X0283435Y0082490D01*
X0283374Y0082485D01*
X0283315Y0082476D01*
X0283256Y0082463D01*
X0283197Y0082447D01*
X0283140Y0082427D01*
X0283085Y0082404D01*
X0283030Y0082377D01*
X0282978Y0082348D01*
X0282927Y0082315D01*
X0282878Y0082279D01*
X0282832Y0082241D01*
X0282788Y0082199D01*
X0282746Y0082155D01*
X0282708Y0082109D01*
X0282672Y0082060D01*
X0282639Y0082009D01*
X0282610Y0081957D01*
X0282583Y0081902D01*
X0282560Y0081847D01*
X0282540Y0081790D01*
X0282524Y0081731D01*
X0282511Y0081672D01*
X0282502Y0081613D01*
X0282497Y0081552D01*
X0282495Y0081492D01*
X0282497Y0081552D01*
X0282502Y0081613D01*
X0282511Y0081672D01*
X0282524Y0081731D01*
X0282540Y0081790D01*
X0282560Y0081847D01*
X0282583Y0081902D01*
X0282610Y0081957D01*
X0282639Y0082009D01*
X0282672Y0082060D01*
X0282708Y0082109D01*
X0282746Y0082155D01*
X0282788Y0082199D01*
X0282832Y0082241D01*
X0282878Y0082279D01*
X0282927Y0082315D01*
X0282978Y0082348D01*
X0283030Y0082377D01*
X0283085Y0082404D01*
X0283140Y0082427D01*
X0283197Y0082447D01*
X0283256Y0082463D01*
X0283315Y0082476D01*
X0283374Y0082485D01*
X0283435Y0082490D01*
X0283495Y0082492D01*
X0291495Y0082492D02*
X0291555Y0082490D01*
X0291616Y0082485D01*
X0291675Y0082476D01*
X0291734Y0082463D01*
X0291793Y0082447D01*
X0291850Y0082427D01*
X0291905Y0082404D01*
X0291960Y0082377D01*
X0292012Y0082348D01*
X0292063Y0082315D01*
X0292112Y0082279D01*
X0292158Y0082241D01*
X0292202Y0082199D01*
X0292244Y0082155D01*
X0292282Y0082109D01*
X0292318Y0082060D01*
X0292351Y0082009D01*
X0292380Y0081957D01*
X0292407Y0081902D01*
X0292430Y0081847D01*
X0292450Y0081790D01*
X0292466Y0081731D01*
X0292479Y0081672D01*
X0292488Y0081613D01*
X0292493Y0081552D01*
X0292495Y0081492D01*
X0292495Y0064492D01*
X0292495Y0081492D01*
X0292493Y0081552D01*
X0292488Y0081613D01*
X0292479Y0081672D01*
X0292466Y0081731D01*
X0292450Y0081790D01*
X0292430Y0081847D01*
X0292407Y0081902D01*
X0292380Y0081957D01*
X0292351Y0082009D01*
X0292318Y0082060D01*
X0292282Y0082109D01*
X0292244Y0082155D01*
X0292202Y0082199D01*
X0292158Y0082241D01*
X0292112Y0082279D01*
X0292063Y0082315D01*
X0292012Y0082348D01*
X0291960Y0082377D01*
X0291905Y0082404D01*
X0291850Y0082427D01*
X0291793Y0082447D01*
X0291734Y0082463D01*
X0291675Y0082476D01*
X0291616Y0082485D01*
X0291555Y0082490D01*
X0291495Y0082492D01*
X0287495Y0074492D02*
X0287495Y0073992D01*
X0287495Y0074492D01*
X0287495Y0071992D02*
X0287495Y0071492D01*
X0287495Y0071992D01*
X0292495Y0064492D02*
X0292493Y0064432D01*
X0292488Y0064371D01*
X0292479Y0064312D01*
X0292466Y0064253D01*
X0292450Y0064194D01*
X0292430Y0064137D01*
X0292407Y0064082D01*
X0292380Y0064027D01*
X0292351Y0063975D01*
X0292318Y0063924D01*
X0292282Y0063875D01*
X0292244Y0063829D01*
X0292202Y0063785D01*
X0292158Y0063743D01*
X0292112Y0063705D01*
X0292063Y0063669D01*
X0292012Y0063636D01*
X0291960Y0063607D01*
X0291905Y0063580D01*
X0291850Y0063557D01*
X0291793Y0063537D01*
X0291734Y0063521D01*
X0291675Y0063508D01*
X0291616Y0063499D01*
X0291555Y0063494D01*
X0291495Y0063492D01*
X0291555Y0063494D01*
X0291616Y0063499D01*
X0291675Y0063508D01*
X0291734Y0063521D01*
X0291793Y0063537D01*
X0291850Y0063557D01*
X0291905Y0063580D01*
X0291960Y0063607D01*
X0292012Y0063636D01*
X0292063Y0063669D01*
X0292112Y0063705D01*
X0292158Y0063743D01*
X0292202Y0063785D01*
X0292244Y0063829D01*
X0292282Y0063875D01*
X0292318Y0063924D01*
X0292351Y0063975D01*
X0292380Y0064027D01*
X0292407Y0064082D01*
X0292430Y0064137D01*
X0292450Y0064194D01*
X0292466Y0064253D01*
X0292479Y0064312D01*
X0292488Y0064371D01*
X0292493Y0064432D01*
X0292495Y0064492D01*
X0276825Y0071453D02*
X0276825Y0071953D01*
X0276825Y0073953D02*
X0276825Y0074453D01*
X0251825Y0057882D02*
X0245825Y0057882D01*
X0245825Y0054382D01*
X0196825Y0054382D01*
X0196825Y0095382D01*
X0245825Y0095382D01*
X0245825Y0091882D01*
X0251825Y0091882D01*
X0251825Y0095382D01*
X0259325Y0095382D01*
X0259325Y0054382D01*
X0251825Y0054382D01*
X0251825Y0057882D01*
X0238725Y0074882D02*
X0238727Y0075056D01*
X0238734Y0075230D01*
X0238744Y0075404D01*
X0238759Y0075578D01*
X0238778Y0075751D01*
X0238802Y0075924D01*
X0238830Y0076096D01*
X0238861Y0076267D01*
X0238898Y0076438D01*
X0238938Y0076607D01*
X0238982Y0076776D01*
X0239031Y0076943D01*
X0239083Y0077109D01*
X0239140Y0077274D01*
X0239201Y0077437D01*
X0239265Y0077599D01*
X0239334Y0077759D01*
X0239407Y0077918D01*
X0239483Y0078074D01*
X0239563Y0078229D01*
X0239647Y0078382D01*
X0239735Y0078532D01*
X0239827Y0078680D01*
X0239922Y0078827D01*
X0240020Y0078970D01*
X0240122Y0079111D01*
X0240228Y0079250D01*
X0240337Y0079386D01*
X0240449Y0079520D01*
X0240564Y0079650D01*
X0240683Y0079778D01*
X0240805Y0079902D01*
X0240929Y0080024D01*
X0241057Y0080143D01*
X0241187Y0080258D01*
X0241321Y0080370D01*
X0241457Y0080479D01*
X0241596Y0080585D01*
X0241737Y0080687D01*
X0241880Y0080785D01*
X0242027Y0080880D01*
X0242175Y0080972D01*
X0242325Y0081060D01*
X0242478Y0081144D01*
X0242633Y0081224D01*
X0242789Y0081300D01*
X0242948Y0081373D01*
X0243108Y0081442D01*
X0243270Y0081506D01*
X0243433Y0081567D01*
X0243598Y0081624D01*
X0243764Y0081676D01*
X0243931Y0081725D01*
X0244100Y0081769D01*
X0244269Y0081809D01*
X0244440Y0081846D01*
X0244611Y0081877D01*
X0244783Y0081905D01*
X0244956Y0081929D01*
X0245129Y0081948D01*
X0245303Y0081963D01*
X0245477Y0081973D01*
X0245651Y0081980D01*
X0245825Y0081982D01*
X0245999Y0081980D01*
X0246173Y0081973D01*
X0246347Y0081963D01*
X0246521Y0081948D01*
X0246694Y0081929D01*
X0246867Y0081905D01*
X0247039Y0081877D01*
X0247210Y0081846D01*
X0247381Y0081809D01*
X0247550Y0081769D01*
X0247719Y0081725D01*
X0247886Y0081676D01*
X0248052Y0081624D01*
X0248217Y0081567D01*
X0248380Y0081506D01*
X0248542Y0081442D01*
X0248702Y0081373D01*
X0248861Y0081300D01*
X0249017Y0081224D01*
X0249172Y0081144D01*
X0249325Y0081060D01*
X0249475Y0080972D01*
X0249623Y0080880D01*
X0249770Y0080785D01*
X0249913Y0080687D01*
X0250054Y0080585D01*
X0250193Y0080479D01*
X0250329Y0080370D01*
X0250463Y0080258D01*
X0250593Y0080143D01*
X0250721Y0080024D01*
X0250845Y0079902D01*
X0250967Y0079778D01*
X0251086Y0079650D01*
X0251201Y0079520D01*
X0251313Y0079386D01*
X0251422Y0079250D01*
X0251528Y0079111D01*
X0251630Y0078970D01*
X0251728Y0078827D01*
X0251823Y0078680D01*
X0251915Y0078532D01*
X0252003Y0078382D01*
X0252087Y0078229D01*
X0252167Y0078074D01*
X0252243Y0077918D01*
X0252316Y0077759D01*
X0252385Y0077599D01*
X0252449Y0077437D01*
X0252510Y0077274D01*
X0252567Y0077109D01*
X0252619Y0076943D01*
X0252668Y0076776D01*
X0252712Y0076607D01*
X0252752Y0076438D01*
X0252789Y0076267D01*
X0252820Y0076096D01*
X0252848Y0075924D01*
X0252872Y0075751D01*
X0252891Y0075578D01*
X0252906Y0075404D01*
X0252916Y0075230D01*
X0252923Y0075056D01*
X0252925Y0074882D01*
X0252923Y0074708D01*
X0252916Y0074534D01*
X0252906Y0074360D01*
X0252891Y0074186D01*
X0252872Y0074013D01*
X0252848Y0073840D01*
X0252820Y0073668D01*
X0252789Y0073497D01*
X0252752Y0073326D01*
X0252712Y0073157D01*
X0252668Y0072988D01*
X0252619Y0072821D01*
X0252567Y0072655D01*
X0252510Y0072490D01*
X0252449Y0072327D01*
X0252385Y0072165D01*
X0252316Y0072005D01*
X0252243Y0071846D01*
X0252167Y0071690D01*
X0252087Y0071535D01*
X0252003Y0071382D01*
X0251915Y0071232D01*
X0251823Y0071084D01*
X0251728Y0070937D01*
X0251630Y0070794D01*
X0251528Y0070653D01*
X0251422Y0070514D01*
X0251313Y0070378D01*
X0251201Y0070244D01*
X0251086Y0070114D01*
X0250967Y0069986D01*
X0250845Y0069862D01*
X0250721Y0069740D01*
X0250593Y0069621D01*
X0250463Y0069506D01*
X0250329Y0069394D01*
X0250193Y0069285D01*
X0250054Y0069179D01*
X0249913Y0069077D01*
X0249770Y0068979D01*
X0249623Y0068884D01*
X0249475Y0068792D01*
X0249325Y0068704D01*
X0249172Y0068620D01*
X0249017Y0068540D01*
X0248861Y0068464D01*
X0248702Y0068391D01*
X0248542Y0068322D01*
X0248380Y0068258D01*
X0248217Y0068197D01*
X0248052Y0068140D01*
X0247886Y0068088D01*
X0247719Y0068039D01*
X0247550Y0067995D01*
X0247381Y0067955D01*
X0247210Y0067918D01*
X0247039Y0067887D01*
X0246867Y0067859D01*
X0246694Y0067835D01*
X0246521Y0067816D01*
X0246347Y0067801D01*
X0246173Y0067791D01*
X0245999Y0067784D01*
X0245825Y0067782D01*
X0245651Y0067784D01*
X0245477Y0067791D01*
X0245303Y0067801D01*
X0245129Y0067816D01*
X0244956Y0067835D01*
X0244783Y0067859D01*
X0244611Y0067887D01*
X0244440Y0067918D01*
X0244269Y0067955D01*
X0244100Y0067995D01*
X0243931Y0068039D01*
X0243764Y0068088D01*
X0243598Y0068140D01*
X0243433Y0068197D01*
X0243270Y0068258D01*
X0243108Y0068322D01*
X0242948Y0068391D01*
X0242789Y0068464D01*
X0242633Y0068540D01*
X0242478Y0068620D01*
X0242325Y0068704D01*
X0242175Y0068792D01*
X0242027Y0068884D01*
X0241880Y0068979D01*
X0241737Y0069077D01*
X0241596Y0069179D01*
X0241457Y0069285D01*
X0241321Y0069394D01*
X0241187Y0069506D01*
X0241057Y0069621D01*
X0240929Y0069740D01*
X0240805Y0069862D01*
X0240683Y0069986D01*
X0240564Y0070114D01*
X0240449Y0070244D01*
X0240337Y0070378D01*
X0240228Y0070514D01*
X0240122Y0070653D01*
X0240020Y0070794D01*
X0239922Y0070937D01*
X0239827Y0071084D01*
X0239735Y0071232D01*
X0239647Y0071382D01*
X0239563Y0071535D01*
X0239483Y0071690D01*
X0239407Y0071846D01*
X0239334Y0072005D01*
X0239265Y0072165D01*
X0239201Y0072327D01*
X0239140Y0072490D01*
X0239083Y0072655D01*
X0239031Y0072821D01*
X0238982Y0072988D01*
X0238938Y0073157D01*
X0238898Y0073326D01*
X0238861Y0073497D01*
X0238830Y0073668D01*
X0238802Y0073840D01*
X0238778Y0074013D01*
X0238759Y0074186D01*
X0238744Y0074360D01*
X0238734Y0074534D01*
X0238727Y0074708D01*
X0238725Y0074882D01*
X0239601Y0080315D02*
X0234601Y0080315D01*
X0232101Y0082815D01*
X0229601Y0080315D01*
X0224601Y0080315D01*
X0222101Y0082815D01*
X0219601Y0080315D01*
X0214601Y0080315D01*
X0212101Y0082815D01*
X0209601Y0080315D01*
X0204601Y0080315D01*
X0202101Y0082815D01*
X0202101Y0087815D01*
X0204601Y0090315D01*
X0209601Y0090315D01*
X0212101Y0087815D01*
X0214601Y0090315D01*
X0219601Y0090315D01*
X0222101Y0087815D01*
X0224601Y0090315D01*
X0229601Y0090315D01*
X0232101Y0087815D01*
X0234601Y0090315D01*
X0239601Y0090315D01*
X0242101Y0087815D01*
X0242101Y0082815D01*
X0239601Y0080315D01*
X0269904Y0087594D02*
X0269744Y0087596D01*
X0269585Y0087602D01*
X0269426Y0087612D01*
X0269267Y0087625D01*
X0269108Y0087643D01*
X0268950Y0087664D01*
X0268793Y0087690D01*
X0268636Y0087719D01*
X0268480Y0087752D01*
X0268325Y0087789D01*
X0268170Y0087829D01*
X0268017Y0087874D01*
X0267865Y0087922D01*
X0267714Y0087974D01*
X0267565Y0088030D01*
X0267417Y0088089D01*
X0267270Y0088152D01*
X0267125Y0088218D01*
X0266982Y0088288D01*
X0266840Y0088362D01*
X0266700Y0088438D01*
X0266562Y0088519D01*
X0266427Y0088602D01*
X0266293Y0088689D01*
X0266161Y0088780D01*
X0266032Y0088873D01*
X0265905Y0088970D01*
X0265780Y0089069D01*
X0265658Y0089172D01*
X0265539Y0089278D01*
X0265422Y0089386D01*
X0265308Y0089498D01*
X0265196Y0089612D01*
X0265088Y0089729D01*
X0264982Y0089848D01*
X0264879Y0089970D01*
X0264780Y0090095D01*
X0264683Y0090222D01*
X0264590Y0090351D01*
X0264499Y0090483D01*
X0264412Y0090617D01*
X0264329Y0090752D01*
X0264248Y0090890D01*
X0264172Y0091030D01*
X0264098Y0091172D01*
X0264028Y0091315D01*
X0263962Y0091460D01*
X0263899Y0091607D01*
X0263840Y0091755D01*
X0263784Y0091904D01*
X0263732Y0092055D01*
X0263684Y0092207D01*
X0263639Y0092360D01*
X0263599Y0092515D01*
X0263562Y0092670D01*
X0263529Y0092826D01*
X0263500Y0092983D01*
X0263474Y0093140D01*
X0263453Y0093298D01*
X0263435Y0093457D01*
X0263422Y0093616D01*
X0263412Y0093775D01*
X0263406Y0093934D01*
X0263404Y0094094D01*
X0263406Y0094254D01*
X0263412Y0094413D01*
X0263422Y0094572D01*
X0263435Y0094731D01*
X0263453Y0094890D01*
X0263474Y0095048D01*
X0263500Y0095205D01*
X0263529Y0095362D01*
X0263562Y0095518D01*
X0263599Y0095673D01*
X0263639Y0095828D01*
X0263684Y0095981D01*
X0263732Y0096133D01*
X0263784Y0096284D01*
X0263840Y0096433D01*
X0263899Y0096581D01*
X0263962Y0096728D01*
X0264028Y0096873D01*
X0264098Y0097016D01*
X0264172Y0097158D01*
X0264248Y0097298D01*
X0264329Y0097436D01*
X0264412Y0097571D01*
X0264499Y0097705D01*
X0264590Y0097837D01*
X0264683Y0097966D01*
X0264780Y0098093D01*
X0264879Y0098218D01*
X0264982Y0098340D01*
X0265088Y0098459D01*
X0265196Y0098576D01*
X0265308Y0098690D01*
X0265422Y0098802D01*
X0265539Y0098910D01*
X0265658Y0099016D01*
X0265780Y0099119D01*
X0265905Y0099218D01*
X0266032Y0099315D01*
X0266161Y0099408D01*
X0266293Y0099499D01*
X0266427Y0099586D01*
X0266562Y0099669D01*
X0266700Y0099750D01*
X0266840Y0099826D01*
X0266982Y0099900D01*
X0267125Y0099970D01*
X0267270Y0100036D01*
X0267417Y0100099D01*
X0267565Y0100158D01*
X0267714Y0100214D01*
X0267865Y0100266D01*
X0268017Y0100314D01*
X0268170Y0100359D01*
X0268325Y0100399D01*
X0268480Y0100436D01*
X0268636Y0100469D01*
X0268793Y0100498D01*
X0268950Y0100524D01*
X0269108Y0100545D01*
X0269267Y0100563D01*
X0269426Y0100576D01*
X0269585Y0100586D01*
X0269744Y0100592D01*
X0269904Y0100594D01*
X0293904Y0100594D02*
X0294064Y0100592D01*
X0294223Y0100586D01*
X0294382Y0100576D01*
X0294541Y0100563D01*
X0294700Y0100545D01*
X0294858Y0100524D01*
X0295015Y0100498D01*
X0295172Y0100469D01*
X0295328Y0100436D01*
X0295483Y0100399D01*
X0295638Y0100359D01*
X0295791Y0100314D01*
X0295943Y0100266D01*
X0296094Y0100214D01*
X0296243Y0100158D01*
X0296391Y0100099D01*
X0296538Y0100036D01*
X0296683Y0099970D01*
X0296826Y0099900D01*
X0296968Y0099826D01*
X0297108Y0099750D01*
X0297246Y0099669D01*
X0297381Y0099586D01*
X0297515Y0099499D01*
X0297647Y0099408D01*
X0297776Y0099315D01*
X0297903Y0099218D01*
X0298028Y0099119D01*
X0298150Y0099016D01*
X0298269Y0098910D01*
X0298386Y0098802D01*
X0298500Y0098690D01*
X0298612Y0098576D01*
X0298720Y0098459D01*
X0298826Y0098340D01*
X0298929Y0098218D01*
X0299028Y0098093D01*
X0299125Y0097966D01*
X0299218Y0097837D01*
X0299309Y0097705D01*
X0299396Y0097571D01*
X0299479Y0097436D01*
X0299560Y0097298D01*
X0299636Y0097158D01*
X0299710Y0097016D01*
X0299780Y0096873D01*
X0299846Y0096728D01*
X0299909Y0096581D01*
X0299968Y0096433D01*
X0300024Y0096284D01*
X0300076Y0096133D01*
X0300124Y0095981D01*
X0300169Y0095828D01*
X0300209Y0095673D01*
X0300246Y0095518D01*
X0300279Y0095362D01*
X0300308Y0095205D01*
X0300334Y0095048D01*
X0300355Y0094890D01*
X0300373Y0094731D01*
X0300386Y0094572D01*
X0300396Y0094413D01*
X0300402Y0094254D01*
X0300404Y0094094D01*
X0300402Y0093934D01*
X0300396Y0093775D01*
X0300386Y0093616D01*
X0300373Y0093457D01*
X0300355Y0093298D01*
X0300334Y0093140D01*
X0300308Y0092983D01*
X0300279Y0092826D01*
X0300246Y0092670D01*
X0300209Y0092515D01*
X0300169Y0092360D01*
X0300124Y0092207D01*
X0300076Y0092055D01*
X0300024Y0091904D01*
X0299968Y0091755D01*
X0299909Y0091607D01*
X0299846Y0091460D01*
X0299780Y0091315D01*
X0299710Y0091172D01*
X0299636Y0091030D01*
X0299560Y0090890D01*
X0299479Y0090752D01*
X0299396Y0090617D01*
X0299309Y0090483D01*
X0299218Y0090351D01*
X0299125Y0090222D01*
X0299028Y0090095D01*
X0298929Y0089970D01*
X0298826Y0089848D01*
X0298720Y0089729D01*
X0298612Y0089612D01*
X0298500Y0089498D01*
X0298386Y0089386D01*
X0298269Y0089278D01*
X0298150Y0089172D01*
X0298028Y0089069D01*
X0297903Y0088970D01*
X0297776Y0088873D01*
X0297647Y0088780D01*
X0297515Y0088689D01*
X0297381Y0088602D01*
X0297246Y0088519D01*
X0297108Y0088438D01*
X0296968Y0088362D01*
X0296826Y0088288D01*
X0296683Y0088218D01*
X0296538Y0088152D01*
X0296391Y0088089D01*
X0296243Y0088030D01*
X0296094Y0087974D01*
X0295943Y0087922D01*
X0295791Y0087874D01*
X0295638Y0087829D01*
X0295483Y0087789D01*
X0295328Y0087752D01*
X0295172Y0087719D01*
X0295015Y0087690D01*
X0294858Y0087664D01*
X0294700Y0087643D01*
X0294541Y0087625D01*
X0294382Y0087612D01*
X0294223Y0087602D01*
X0294064Y0087596D01*
X0293904Y0087594D01*
X0294064Y0087596D01*
X0294223Y0087602D01*
X0294382Y0087612D01*
X0294541Y0087625D01*
X0294700Y0087643D01*
X0294858Y0087664D01*
X0295015Y0087690D01*
X0295172Y0087719D01*
X0295328Y0087752D01*
X0295483Y0087789D01*
X0295638Y0087829D01*
X0295791Y0087874D01*
X0295943Y0087922D01*
X0296094Y0087974D01*
X0296243Y0088030D01*
X0296391Y0088089D01*
X0296538Y0088152D01*
X0296683Y0088218D01*
X0296826Y0088288D01*
X0296968Y0088362D01*
X0297108Y0088438D01*
X0297246Y0088519D01*
X0297381Y0088602D01*
X0297515Y0088689D01*
X0297647Y0088780D01*
X0297776Y0088873D01*
X0297903Y0088970D01*
X0298028Y0089069D01*
X0298150Y0089172D01*
X0298269Y0089278D01*
X0298386Y0089386D01*
X0298500Y0089498D01*
X0298612Y0089612D01*
X0298720Y0089729D01*
X0298826Y0089848D01*
X0298929Y0089970D01*
X0299028Y0090095D01*
X0299125Y0090222D01*
X0299218Y0090351D01*
X0299309Y0090483D01*
X0299396Y0090617D01*
X0299479Y0090752D01*
X0299560Y0090890D01*
X0299636Y0091030D01*
X0299710Y0091172D01*
X0299780Y0091315D01*
X0299846Y0091460D01*
X0299909Y0091607D01*
X0299968Y0091755D01*
X0300024Y0091904D01*
X0300076Y0092055D01*
X0300124Y0092207D01*
X0300169Y0092360D01*
X0300209Y0092515D01*
X0300246Y0092670D01*
X0300279Y0092826D01*
X0300308Y0092983D01*
X0300334Y0093140D01*
X0300355Y0093298D01*
X0300373Y0093457D01*
X0300386Y0093616D01*
X0300396Y0093775D01*
X0300402Y0093934D01*
X0300404Y0094094D01*
X0300402Y0094254D01*
X0300396Y0094413D01*
X0300386Y0094572D01*
X0300373Y0094731D01*
X0300355Y0094890D01*
X0300334Y0095048D01*
X0300308Y0095205D01*
X0300279Y0095362D01*
X0300246Y0095518D01*
X0300209Y0095673D01*
X0300169Y0095828D01*
X0300124Y0095981D01*
X0300076Y0096133D01*
X0300024Y0096284D01*
X0299968Y0096433D01*
X0299909Y0096581D01*
X0299846Y0096728D01*
X0299780Y0096873D01*
X0299710Y0097016D01*
X0299636Y0097158D01*
X0299560Y0097298D01*
X0299479Y0097436D01*
X0299396Y0097571D01*
X0299309Y0097705D01*
X0299218Y0097837D01*
X0299125Y0097966D01*
X0299028Y0098093D01*
X0298929Y0098218D01*
X0298826Y0098340D01*
X0298720Y0098459D01*
X0298612Y0098576D01*
X0298500Y0098690D01*
X0298386Y0098802D01*
X0298269Y0098910D01*
X0298150Y0099016D01*
X0298028Y0099119D01*
X0297903Y0099218D01*
X0297776Y0099315D01*
X0297647Y0099408D01*
X0297515Y0099499D01*
X0297381Y0099586D01*
X0297246Y0099669D01*
X0297108Y0099750D01*
X0296968Y0099826D01*
X0296826Y0099900D01*
X0296683Y0099970D01*
X0296538Y0100036D01*
X0296391Y0100099D01*
X0296243Y0100158D01*
X0296094Y0100214D01*
X0295943Y0100266D01*
X0295791Y0100314D01*
X0295638Y0100359D01*
X0295483Y0100399D01*
X0295328Y0100436D01*
X0295172Y0100469D01*
X0295015Y0100498D01*
X0294858Y0100524D01*
X0294700Y0100545D01*
X0294541Y0100563D01*
X0294382Y0100576D01*
X0294223Y0100586D01*
X0294064Y0100592D01*
X0293904Y0100594D01*
X0321491Y0093067D02*
X0321491Y0086067D01*
X0321493Y0086007D01*
X0321498Y0085946D01*
X0321507Y0085887D01*
X0321520Y0085828D01*
X0321536Y0085769D01*
X0321556Y0085712D01*
X0321579Y0085657D01*
X0321606Y0085602D01*
X0321635Y0085550D01*
X0321668Y0085499D01*
X0321704Y0085450D01*
X0321742Y0085404D01*
X0321784Y0085360D01*
X0321828Y0085318D01*
X0321874Y0085280D01*
X0321923Y0085244D01*
X0321974Y0085211D01*
X0322026Y0085182D01*
X0322081Y0085155D01*
X0322136Y0085132D01*
X0322193Y0085112D01*
X0322252Y0085096D01*
X0322311Y0085083D01*
X0322370Y0085074D01*
X0322431Y0085069D01*
X0322491Y0085067D01*
X0323991Y0085067D01*
X0324491Y0085567D01*
X0343491Y0085567D01*
X0343991Y0085067D01*
X0345491Y0085067D01*
X0345551Y0085069D01*
X0345612Y0085074D01*
X0345671Y0085083D01*
X0345730Y0085096D01*
X0345789Y0085112D01*
X0345846Y0085132D01*
X0345901Y0085155D01*
X0345956Y0085182D01*
X0346008Y0085211D01*
X0346059Y0085244D01*
X0346108Y0085280D01*
X0346154Y0085318D01*
X0346198Y0085360D01*
X0346240Y0085404D01*
X0346278Y0085450D01*
X0346314Y0085499D01*
X0346347Y0085550D01*
X0346376Y0085602D01*
X0346403Y0085657D01*
X0346426Y0085712D01*
X0346446Y0085769D01*
X0346462Y0085828D01*
X0346475Y0085887D01*
X0346484Y0085946D01*
X0346489Y0086007D01*
X0346491Y0086067D01*
X0346491Y0093067D01*
X0346489Y0093127D01*
X0346484Y0093188D01*
X0346475Y0093247D01*
X0346462Y0093306D01*
X0346446Y0093365D01*
X0346426Y0093422D01*
X0346403Y0093477D01*
X0346376Y0093532D01*
X0346347Y0093584D01*
X0346314Y0093635D01*
X0346278Y0093684D01*
X0346240Y0093730D01*
X0346198Y0093774D01*
X0346154Y0093816D01*
X0346108Y0093854D01*
X0346059Y0093890D01*
X0346008Y0093923D01*
X0345956Y0093952D01*
X0345901Y0093979D01*
X0345846Y0094002D01*
X0345789Y0094022D01*
X0345730Y0094038D01*
X0345671Y0094051D01*
X0345612Y0094060D01*
X0345551Y0094065D01*
X0345491Y0094067D01*
X0343991Y0094067D01*
X0343491Y0093567D01*
X0324491Y0093567D01*
X0323991Y0094067D01*
X0322491Y0094067D01*
X0322431Y0094065D01*
X0322370Y0094060D01*
X0322311Y0094051D01*
X0322252Y0094038D01*
X0322193Y0094022D01*
X0322136Y0094002D01*
X0322081Y0093979D01*
X0322026Y0093952D01*
X0321974Y0093923D01*
X0321923Y0093890D01*
X0321874Y0093854D01*
X0321828Y0093816D01*
X0321784Y0093774D01*
X0321742Y0093730D01*
X0321704Y0093684D01*
X0321668Y0093635D01*
X0321635Y0093584D01*
X0321606Y0093532D01*
X0321579Y0093477D01*
X0321556Y0093422D01*
X0321536Y0093365D01*
X0321520Y0093306D01*
X0321507Y0093247D01*
X0321498Y0093188D01*
X0321493Y0093127D01*
X0321491Y0093067D01*
X0313991Y0069571D02*
X0313991Y0046571D01*
X0353991Y0046571D01*
X0353991Y0054071D01*
X0353865Y0054073D01*
X0353740Y0054079D01*
X0353615Y0054089D01*
X0353490Y0054103D01*
X0353365Y0054120D01*
X0353241Y0054142D01*
X0353118Y0054167D01*
X0352996Y0054197D01*
X0352875Y0054230D01*
X0352755Y0054267D01*
X0352636Y0054307D01*
X0352519Y0054352D01*
X0352402Y0054400D01*
X0352288Y0054452D01*
X0352175Y0054507D01*
X0352064Y0054566D01*
X0351955Y0054628D01*
X0351848Y0054694D01*
X0351743Y0054763D01*
X0351640Y0054835D01*
X0351539Y0054910D01*
X0351441Y0054989D01*
X0351346Y0055071D01*
X0351253Y0055155D01*
X0351163Y0055243D01*
X0351075Y0055333D01*
X0350991Y0055426D01*
X0350909Y0055521D01*
X0350830Y0055619D01*
X0350755Y0055720D01*
X0350683Y0055823D01*
X0350614Y0055928D01*
X0350548Y0056035D01*
X0350486Y0056144D01*
X0350427Y0056255D01*
X0350372Y0056368D01*
X0350320Y0056482D01*
X0350272Y0056599D01*
X0350227Y0056716D01*
X0350187Y0056835D01*
X0350150Y0056955D01*
X0350117Y0057076D01*
X0350087Y0057198D01*
X0350062Y0057321D01*
X0350040Y0057445D01*
X0350023Y0057570D01*
X0350009Y0057695D01*
X0349999Y0057820D01*
X0349993Y0057945D01*
X0349991Y0058071D01*
X0349993Y0058197D01*
X0349999Y0058322D01*
X0350009Y0058447D01*
X0350023Y0058572D01*
X0350040Y0058697D01*
X0350062Y0058821D01*
X0350087Y0058944D01*
X0350117Y0059066D01*
X0350150Y0059187D01*
X0350187Y0059307D01*
X0350227Y0059426D01*
X0350272Y0059543D01*
X0350320Y0059660D01*
X0350372Y0059774D01*
X0350427Y0059887D01*
X0350486Y0059998D01*
X0350548Y0060107D01*
X0350614Y0060214D01*
X0350683Y0060319D01*
X0350755Y0060422D01*
X0350830Y0060523D01*
X0350909Y0060621D01*
X0350991Y0060716D01*
X0351075Y0060809D01*
X0351163Y0060899D01*
X0351253Y0060987D01*
X0351346Y0061071D01*
X0351441Y0061153D01*
X0351539Y0061232D01*
X0351640Y0061307D01*
X0351743Y0061379D01*
X0351848Y0061448D01*
X0351955Y0061514D01*
X0352064Y0061576D01*
X0352175Y0061635D01*
X0352288Y0061690D01*
X0352402Y0061742D01*
X0352519Y0061790D01*
X0352636Y0061835D01*
X0352755Y0061875D01*
X0352875Y0061912D01*
X0352996Y0061945D01*
X0353118Y0061975D01*
X0353241Y0062000D01*
X0353365Y0062022D01*
X0353490Y0062039D01*
X0353615Y0062053D01*
X0353740Y0062063D01*
X0353865Y0062069D01*
X0353991Y0062071D01*
X0353991Y0069571D01*
X0313991Y0069571D01*
X0369109Y0069571D02*
X0369109Y0046571D01*
X0409109Y0046571D01*
X0409109Y0054071D01*
X0408983Y0054073D01*
X0408858Y0054079D01*
X0408733Y0054089D01*
X0408608Y0054103D01*
X0408483Y0054120D01*
X0408359Y0054142D01*
X0408236Y0054167D01*
X0408114Y0054197D01*
X0407993Y0054230D01*
X0407873Y0054267D01*
X0407754Y0054307D01*
X0407637Y0054352D01*
X0407520Y0054400D01*
X0407406Y0054452D01*
X0407293Y0054507D01*
X0407182Y0054566D01*
X0407073Y0054628D01*
X0406966Y0054694D01*
X0406861Y0054763D01*
X0406758Y0054835D01*
X0406657Y0054910D01*
X0406559Y0054989D01*
X0406464Y0055071D01*
X0406371Y0055155D01*
X0406281Y0055243D01*
X0406193Y0055333D01*
X0406109Y0055426D01*
X0406027Y0055521D01*
X0405948Y0055619D01*
X0405873Y0055720D01*
X0405801Y0055823D01*
X0405732Y0055928D01*
X0405666Y0056035D01*
X0405604Y0056144D01*
X0405545Y0056255D01*
X0405490Y0056368D01*
X0405438Y0056482D01*
X0405390Y0056599D01*
X0405345Y0056716D01*
X0405305Y0056835D01*
X0405268Y0056955D01*
X0405235Y0057076D01*
X0405205Y0057198D01*
X0405180Y0057321D01*
X0405158Y0057445D01*
X0405141Y0057570D01*
X0405127Y0057695D01*
X0405117Y0057820D01*
X0405111Y0057945D01*
X0405109Y0058071D01*
X0405111Y0058197D01*
X0405117Y0058322D01*
X0405127Y0058447D01*
X0405141Y0058572D01*
X0405158Y0058697D01*
X0405180Y0058821D01*
X0405205Y0058944D01*
X0405235Y0059066D01*
X0405268Y0059187D01*
X0405305Y0059307D01*
X0405345Y0059426D01*
X0405390Y0059543D01*
X0405438Y0059660D01*
X0405490Y0059774D01*
X0405545Y0059887D01*
X0405604Y0059998D01*
X0405666Y0060107D01*
X0405732Y0060214D01*
X0405801Y0060319D01*
X0405873Y0060422D01*
X0405948Y0060523D01*
X0406027Y0060621D01*
X0406109Y0060716D01*
X0406193Y0060809D01*
X0406281Y0060899D01*
X0406371Y0060987D01*
X0406464Y0061071D01*
X0406559Y0061153D01*
X0406657Y0061232D01*
X0406758Y0061307D01*
X0406861Y0061379D01*
X0406966Y0061448D01*
X0407073Y0061514D01*
X0407182Y0061576D01*
X0407293Y0061635D01*
X0407406Y0061690D01*
X0407520Y0061742D01*
X0407637Y0061790D01*
X0407754Y0061835D01*
X0407873Y0061875D01*
X0407993Y0061912D01*
X0408114Y0061945D01*
X0408236Y0061975D01*
X0408359Y0062000D01*
X0408483Y0062022D01*
X0408608Y0062039D01*
X0408733Y0062053D01*
X0408858Y0062063D01*
X0408983Y0062069D01*
X0409109Y0062071D01*
X0409109Y0069571D01*
X0369109Y0069571D01*
X0378948Y0084791D02*
X0380448Y0084791D01*
X0380948Y0085291D01*
X0399948Y0085291D01*
X0400448Y0084791D01*
X0401948Y0084791D01*
X0402008Y0084793D01*
X0402069Y0084798D01*
X0402128Y0084807D01*
X0402187Y0084820D01*
X0402246Y0084836D01*
X0402303Y0084856D01*
X0402358Y0084879D01*
X0402413Y0084906D01*
X0402465Y0084935D01*
X0402516Y0084968D01*
X0402565Y0085004D01*
X0402611Y0085042D01*
X0402655Y0085084D01*
X0402697Y0085128D01*
X0402735Y0085174D01*
X0402771Y0085223D01*
X0402804Y0085274D01*
X0402833Y0085326D01*
X0402860Y0085381D01*
X0402883Y0085436D01*
X0402903Y0085493D01*
X0402919Y0085552D01*
X0402932Y0085611D01*
X0402941Y0085670D01*
X0402946Y0085731D01*
X0402948Y0085791D01*
X0402948Y0092791D01*
X0402946Y0092851D01*
X0402941Y0092912D01*
X0402932Y0092971D01*
X0402919Y0093030D01*
X0402903Y0093089D01*
X0402883Y0093146D01*
X0402860Y0093201D01*
X0402833Y0093256D01*
X0402804Y0093308D01*
X0402771Y0093359D01*
X0402735Y0093408D01*
X0402697Y0093454D01*
X0402655Y0093498D01*
X0402611Y0093540D01*
X0402565Y0093578D01*
X0402516Y0093614D01*
X0402465Y0093647D01*
X0402413Y0093676D01*
X0402358Y0093703D01*
X0402303Y0093726D01*
X0402246Y0093746D01*
X0402187Y0093762D01*
X0402128Y0093775D01*
X0402069Y0093784D01*
X0402008Y0093789D01*
X0401948Y0093791D01*
X0400448Y0093791D01*
X0399948Y0093291D01*
X0380948Y0093291D01*
X0380448Y0093791D01*
X0378948Y0093791D01*
X0378888Y0093789D01*
X0378827Y0093784D01*
X0378768Y0093775D01*
X0378709Y0093762D01*
X0378650Y0093746D01*
X0378593Y0093726D01*
X0378538Y0093703D01*
X0378483Y0093676D01*
X0378431Y0093647D01*
X0378380Y0093614D01*
X0378331Y0093578D01*
X0378285Y0093540D01*
X0378241Y0093498D01*
X0378199Y0093454D01*
X0378161Y0093408D01*
X0378125Y0093359D01*
X0378092Y0093308D01*
X0378063Y0093256D01*
X0378036Y0093201D01*
X0378013Y0093146D01*
X0377993Y0093089D01*
X0377977Y0093030D01*
X0377964Y0092971D01*
X0377955Y0092912D01*
X0377950Y0092851D01*
X0377948Y0092791D01*
X0377948Y0085791D01*
X0377950Y0085731D01*
X0377955Y0085670D01*
X0377964Y0085611D01*
X0377977Y0085552D01*
X0377993Y0085493D01*
X0378013Y0085436D01*
X0378036Y0085381D01*
X0378063Y0085326D01*
X0378092Y0085274D01*
X0378125Y0085223D01*
X0378161Y0085174D01*
X0378199Y0085128D01*
X0378241Y0085084D01*
X0378285Y0085042D01*
X0378331Y0085004D01*
X0378380Y0084968D01*
X0378431Y0084935D01*
X0378483Y0084906D01*
X0378538Y0084879D01*
X0378593Y0084856D01*
X0378650Y0084836D01*
X0378709Y0084820D01*
X0378768Y0084807D01*
X0378827Y0084798D01*
X0378888Y0084793D01*
X0378948Y0084791D01*
X0332140Y0115512D02*
X0192640Y0115512D01*
X0192140Y0115512D02*
X0192140Y0120512D01*
X0192280Y0120514D01*
X0192420Y0120520D01*
X0192560Y0120530D01*
X0192700Y0120543D01*
X0192839Y0120561D01*
X0192978Y0120583D01*
X0193115Y0120608D01*
X0193253Y0120637D01*
X0193389Y0120670D01*
X0193524Y0120707D01*
X0193658Y0120748D01*
X0193791Y0120793D01*
X0193923Y0120841D01*
X0194053Y0120893D01*
X0194182Y0120948D01*
X0194309Y0121007D01*
X0194435Y0121070D01*
X0194559Y0121136D01*
X0194680Y0121205D01*
X0194800Y0121278D01*
X0194918Y0121355D01*
X0195033Y0121434D01*
X0195147Y0121517D01*
X0195257Y0121603D01*
X0195366Y0121692D01*
X0195472Y0121784D01*
X0195575Y0121879D01*
X0195676Y0121976D01*
X0195773Y0122077D01*
X0195868Y0122180D01*
X0195960Y0122286D01*
X0196049Y0122395D01*
X0196135Y0122505D01*
X0196218Y0122619D01*
X0196297Y0122734D01*
X0196374Y0122852D01*
X0196447Y0122972D01*
X0196516Y0123093D01*
X0196582Y0123217D01*
X0196645Y0123343D01*
X0196704Y0123470D01*
X0196759Y0123599D01*
X0196811Y0123729D01*
X0196859Y0123861D01*
X0196904Y0123994D01*
X0196945Y0124128D01*
X0196982Y0124263D01*
X0197015Y0124399D01*
X0197044Y0124537D01*
X0197069Y0124674D01*
X0197091Y0124813D01*
X0197109Y0124952D01*
X0197122Y0125092D01*
X0197132Y0125232D01*
X0197138Y0125372D01*
X0197140Y0125512D01*
X0197138Y0125652D01*
X0197132Y0125792D01*
X0197122Y0125932D01*
X0197109Y0126072D01*
X0197091Y0126211D01*
X0197069Y0126350D01*
X0197044Y0126487D01*
X0197015Y0126625D01*
X0196982Y0126761D01*
X0196945Y0126896D01*
X0196904Y0127030D01*
X0196859Y0127163D01*
X0196811Y0127295D01*
X0196759Y0127425D01*
X0196704Y0127554D01*
X0196645Y0127681D01*
X0196582Y0127807D01*
X0196516Y0127931D01*
X0196447Y0128052D01*
X0196374Y0128172D01*
X0196297Y0128290D01*
X0196218Y0128405D01*
X0196135Y0128519D01*
X0196049Y0128629D01*
X0195960Y0128738D01*
X0195868Y0128844D01*
X0195773Y0128947D01*
X0195676Y0129048D01*
X0195575Y0129145D01*
X0195472Y0129240D01*
X0195366Y0129332D01*
X0195257Y0129421D01*
X0195147Y0129507D01*
X0195033Y0129590D01*
X0194918Y0129669D01*
X0194800Y0129746D01*
X0194680Y0129819D01*
X0194559Y0129888D01*
X0194435Y0129954D01*
X0194309Y0130017D01*
X0194182Y0130076D01*
X0194053Y0130131D01*
X0193923Y0130183D01*
X0193791Y0130231D01*
X0193658Y0130276D01*
X0193524Y0130317D01*
X0193389Y0130354D01*
X0193253Y0130387D01*
X0193115Y0130416D01*
X0192978Y0130441D01*
X0192839Y0130463D01*
X0192700Y0130481D01*
X0192560Y0130494D01*
X0192420Y0130504D01*
X0192280Y0130510D01*
X0192140Y0130512D01*
X0192140Y0135512D01*
X0332140Y0135512D01*
X0332140Y0115512D01*
X0255022Y0148689D02*
X0255022Y0161689D01*
X0255022Y0174689D01*
X0255022Y0187689D01*
X0199022Y0187689D01*
X0199022Y0174689D01*
X0199022Y0161689D01*
X0199022Y0148689D01*
X0255022Y0148689D01*
X0250022Y0160689D02*
X0244022Y0160689D01*
X0244022Y0175689D01*
X0250022Y0175689D01*
X0250022Y0160689D01*
X0253022Y0161689D02*
X0255022Y0161689D01*
X0253022Y0161689D02*
X0253022Y0174689D01*
X0255022Y0174689D01*
X0240022Y0175689D02*
X0240022Y0160689D01*
X0234022Y0160689D01*
X0234022Y0175689D01*
X0240022Y0175689D01*
X0230022Y0175689D02*
X0230022Y0160689D01*
X0224022Y0160689D01*
X0224022Y0175689D01*
X0230022Y0175689D01*
X0220022Y0175689D02*
X0220022Y0160689D01*
X0214022Y0160689D01*
X0214022Y0175689D01*
X0220022Y0175689D01*
X0210022Y0175689D02*
X0210022Y0160689D01*
X0204022Y0160689D01*
X0204022Y0175689D01*
X0210022Y0175689D01*
X0201022Y0174689D02*
X0199022Y0174689D01*
X0201022Y0174689D02*
X0201022Y0161689D01*
X0199022Y0161689D01*
X0185853Y0155315D02*
X0185853Y0145315D01*
X0185851Y0145255D01*
X0185846Y0145194D01*
X0185837Y0145135D01*
X0185824Y0145076D01*
X0185808Y0145017D01*
X0185788Y0144960D01*
X0185765Y0144905D01*
X0185738Y0144850D01*
X0185709Y0144798D01*
X0185676Y0144747D01*
X0185640Y0144698D01*
X0185602Y0144652D01*
X0185560Y0144608D01*
X0185516Y0144566D01*
X0185470Y0144528D01*
X0185421Y0144492D01*
X0185370Y0144459D01*
X0185318Y0144430D01*
X0185263Y0144403D01*
X0185208Y0144380D01*
X0185151Y0144360D01*
X0185092Y0144344D01*
X0185033Y0144331D01*
X0184974Y0144322D01*
X0184913Y0144317D01*
X0184853Y0144315D01*
X0157853Y0144315D01*
X0157793Y0144317D01*
X0157732Y0144322D01*
X0157673Y0144331D01*
X0157614Y0144344D01*
X0157555Y0144360D01*
X0157498Y0144380D01*
X0157443Y0144403D01*
X0157388Y0144430D01*
X0157336Y0144459D01*
X0157285Y0144492D01*
X0157236Y0144528D01*
X0157190Y0144566D01*
X0157146Y0144608D01*
X0157104Y0144652D01*
X0157066Y0144698D01*
X0157030Y0144747D01*
X0156997Y0144798D01*
X0156968Y0144850D01*
X0156941Y0144905D01*
X0156918Y0144960D01*
X0156898Y0145017D01*
X0156882Y0145076D01*
X0156869Y0145135D01*
X0156860Y0145194D01*
X0156855Y0145255D01*
X0156853Y0145315D01*
X0156853Y0155315D01*
X0156855Y0155375D01*
X0156860Y0155436D01*
X0156869Y0155495D01*
X0156882Y0155554D01*
X0156898Y0155613D01*
X0156918Y0155670D01*
X0156941Y0155725D01*
X0156968Y0155780D01*
X0156997Y0155832D01*
X0157030Y0155883D01*
X0157066Y0155932D01*
X0157104Y0155978D01*
X0157146Y0156022D01*
X0157190Y0156064D01*
X0157236Y0156102D01*
X0157285Y0156138D01*
X0157336Y0156171D01*
X0157388Y0156200D01*
X0157443Y0156227D01*
X0157498Y0156250D01*
X0157555Y0156270D01*
X0157614Y0156286D01*
X0157673Y0156299D01*
X0157732Y0156308D01*
X0157793Y0156313D01*
X0157853Y0156315D01*
X0184853Y0156315D01*
X0184913Y0156313D01*
X0184974Y0156308D01*
X0185033Y0156299D01*
X0185092Y0156286D01*
X0185151Y0156270D01*
X0185208Y0156250D01*
X0185263Y0156227D01*
X0185318Y0156200D01*
X0185370Y0156171D01*
X0185421Y0156138D01*
X0185470Y0156102D01*
X0185516Y0156064D01*
X0185560Y0156022D01*
X0185602Y0155978D01*
X0185640Y0155932D01*
X0185676Y0155883D01*
X0185709Y0155832D01*
X0185738Y0155780D01*
X0185765Y0155725D01*
X0185788Y0155670D01*
X0185808Y0155613D01*
X0185824Y0155554D01*
X0185837Y0155495D01*
X0185846Y0155436D01*
X0185851Y0155375D01*
X0185853Y0155315D01*
X0177353Y0150315D02*
X0172653Y0150315D01*
X0170153Y0150315D02*
X0165353Y0150315D01*
X0111696Y0161992D02*
X0111696Y0133992D01*
X0111694Y0133932D01*
X0111689Y0133871D01*
X0111680Y0133812D01*
X0111667Y0133753D01*
X0111651Y0133694D01*
X0111631Y0133637D01*
X0111608Y0133582D01*
X0111581Y0133527D01*
X0111552Y0133475D01*
X0111519Y0133424D01*
X0111483Y0133375D01*
X0111445Y0133329D01*
X0111403Y0133285D01*
X0111359Y0133243D01*
X0111313Y0133205D01*
X0111264Y0133169D01*
X0111213Y0133136D01*
X0111161Y0133107D01*
X0111106Y0133080D01*
X0111051Y0133057D01*
X0110994Y0133037D01*
X0110935Y0133021D01*
X0110876Y0133008D01*
X0110817Y0132999D01*
X0110756Y0132994D01*
X0110696Y0132992D01*
X0101696Y0132992D01*
X0101636Y0132994D01*
X0101575Y0132999D01*
X0101516Y0133008D01*
X0101457Y0133021D01*
X0101398Y0133037D01*
X0101341Y0133057D01*
X0101286Y0133080D01*
X0101231Y0133107D01*
X0101179Y0133136D01*
X0101128Y0133169D01*
X0101079Y0133205D01*
X0101033Y0133243D01*
X0100989Y0133285D01*
X0100947Y0133329D01*
X0100909Y0133375D01*
X0100873Y0133424D01*
X0100840Y0133475D01*
X0100811Y0133527D01*
X0100784Y0133582D01*
X0100761Y0133637D01*
X0100741Y0133694D01*
X0100725Y0133753D01*
X0100712Y0133812D01*
X0100703Y0133871D01*
X0100698Y0133932D01*
X0100696Y0133992D01*
X0100696Y0161992D01*
X0100698Y0162052D01*
X0100703Y0162113D01*
X0100712Y0162172D01*
X0100725Y0162231D01*
X0100741Y0162290D01*
X0100761Y0162347D01*
X0100784Y0162402D01*
X0100811Y0162457D01*
X0100840Y0162509D01*
X0100873Y0162560D01*
X0100909Y0162609D01*
X0100947Y0162655D01*
X0100989Y0162699D01*
X0101033Y0162741D01*
X0101079Y0162779D01*
X0101128Y0162815D01*
X0101179Y0162848D01*
X0101231Y0162877D01*
X0101286Y0162904D01*
X0101341Y0162927D01*
X0101398Y0162947D01*
X0101457Y0162963D01*
X0101516Y0162976D01*
X0101575Y0162985D01*
X0101636Y0162990D01*
X0101696Y0162992D01*
X0110696Y0162992D01*
X0110756Y0162990D01*
X0110817Y0162985D01*
X0110876Y0162976D01*
X0110935Y0162963D01*
X0110994Y0162947D01*
X0111051Y0162927D01*
X0111106Y0162904D01*
X0111161Y0162877D01*
X0111213Y0162848D01*
X0111264Y0162815D01*
X0111313Y0162779D01*
X0111359Y0162741D01*
X0111403Y0162699D01*
X0111445Y0162655D01*
X0111483Y0162609D01*
X0111519Y0162560D01*
X0111552Y0162509D01*
X0111581Y0162457D01*
X0111608Y0162402D01*
X0111631Y0162347D01*
X0111651Y0162290D01*
X0111667Y0162231D01*
X0111680Y0162172D01*
X0111689Y0162113D01*
X0111694Y0162052D01*
X0111696Y0161992D01*
X0106196Y0151992D02*
X0106196Y0145992D01*
X0108696Y0145992D01*
X0106196Y0145992D02*
X0103696Y0145992D01*
X0106196Y0145992D02*
X0103696Y0149992D01*
X0108696Y0149992D01*
X0106196Y0145992D01*
X0106196Y0143492D01*
X0083148Y0146732D02*
X0079148Y0146732D01*
X0076648Y0144232D02*
X0076648Y0149232D01*
X0066648Y0144232D01*
X0064148Y0146732D02*
X0038148Y0146732D01*
X0035648Y0144232D02*
X0035648Y0132032D01*
X0035648Y0149232D02*
X0035648Y0161532D01*
X0012648Y0179232D02*
X0101648Y0179232D01*
X0101648Y0114232D01*
X0012648Y0114232D01*
X0012648Y0179232D01*
X0019266Y0179823D02*
X0019266Y0180823D01*
X0079266Y0180823D01*
X0079266Y0206823D01*
X0072766Y0206823D01*
X0079266Y0206823D02*
X0079266Y0216323D01*
X0019266Y0216323D01*
X0019266Y0206823D01*
X0025766Y0206823D01*
X0019266Y0206823D02*
X0019266Y0180823D01*
X0019266Y0179823D02*
X0079266Y0179823D01*
X0079266Y0180823D01*
X0067266Y0186123D02*
X0067268Y0186212D01*
X0067274Y0186301D01*
X0067284Y0186390D01*
X0067298Y0186478D01*
X0067315Y0186565D01*
X0067337Y0186651D01*
X0067363Y0186737D01*
X0067392Y0186821D01*
X0067425Y0186904D01*
X0067461Y0186985D01*
X0067502Y0187065D01*
X0067545Y0187142D01*
X0067592Y0187218D01*
X0067643Y0187291D01*
X0067696Y0187362D01*
X0067753Y0187431D01*
X0067813Y0187497D01*
X0067876Y0187561D01*
X0067941Y0187621D01*
X0068009Y0187679D01*
X0068080Y0187733D01*
X0068153Y0187784D01*
X0068228Y0187832D01*
X0068305Y0187877D01*
X0068384Y0187918D01*
X0068465Y0187955D01*
X0068547Y0187989D01*
X0068631Y0188020D01*
X0068716Y0188046D01*
X0068802Y0188069D01*
X0068889Y0188087D01*
X0068977Y0188102D01*
X0069066Y0188113D01*
X0069155Y0188120D01*
X0069244Y0188123D01*
X0069333Y0188122D01*
X0069422Y0188117D01*
X0069510Y0188108D01*
X0069599Y0188095D01*
X0069686Y0188078D01*
X0069773Y0188058D01*
X0069859Y0188033D01*
X0069943Y0188005D01*
X0070026Y0187973D01*
X0070108Y0187937D01*
X0070188Y0187898D01*
X0070266Y0187855D01*
X0070342Y0187809D01*
X0070416Y0187759D01*
X0070488Y0187706D01*
X0070557Y0187650D01*
X0070624Y0187591D01*
X0070688Y0187529D01*
X0070749Y0187465D01*
X0070808Y0187397D01*
X0070863Y0187327D01*
X0070915Y0187255D01*
X0070964Y0187180D01*
X0071009Y0187104D01*
X0071051Y0187025D01*
X0071089Y0186945D01*
X0071124Y0186863D01*
X0071155Y0186779D01*
X0071183Y0186694D01*
X0071206Y0186608D01*
X0071226Y0186521D01*
X0071242Y0186434D01*
X0071254Y0186345D01*
X0071262Y0186257D01*
X0071266Y0186168D01*
X0071266Y0186078D01*
X0071262Y0185989D01*
X0071254Y0185901D01*
X0071242Y0185812D01*
X0071226Y0185725D01*
X0071206Y0185638D01*
X0071183Y0185552D01*
X0071155Y0185467D01*
X0071124Y0185383D01*
X0071089Y0185301D01*
X0071051Y0185221D01*
X0071009Y0185142D01*
X0070964Y0185066D01*
X0070915Y0184991D01*
X0070863Y0184919D01*
X0070808Y0184849D01*
X0070749Y0184781D01*
X0070688Y0184717D01*
X0070624Y0184655D01*
X0070557Y0184596D01*
X0070488Y0184540D01*
X0070416Y0184487D01*
X0070342Y0184437D01*
X0070266Y0184391D01*
X0070188Y0184348D01*
X0070108Y0184309D01*
X0070026Y0184273D01*
X0069943Y0184241D01*
X0069859Y0184213D01*
X0069773Y0184188D01*
X0069686Y0184168D01*
X0069599Y0184151D01*
X0069510Y0184138D01*
X0069422Y0184129D01*
X0069333Y0184124D01*
X0069244Y0184123D01*
X0069155Y0184126D01*
X0069066Y0184133D01*
X0068977Y0184144D01*
X0068889Y0184159D01*
X0068802Y0184177D01*
X0068716Y0184200D01*
X0068631Y0184226D01*
X0068547Y0184257D01*
X0068465Y0184291D01*
X0068384Y0184328D01*
X0068305Y0184369D01*
X0068228Y0184414D01*
X0068153Y0184462D01*
X0068080Y0184513D01*
X0068009Y0184567D01*
X0067941Y0184625D01*
X0067876Y0184685D01*
X0067813Y0184749D01*
X0067753Y0184815D01*
X0067696Y0184884D01*
X0067643Y0184955D01*
X0067592Y0185028D01*
X0067545Y0185104D01*
X0067502Y0185181D01*
X0067461Y0185261D01*
X0067425Y0185342D01*
X0067392Y0185425D01*
X0067363Y0185509D01*
X0067337Y0185595D01*
X0067315Y0185681D01*
X0067298Y0185768D01*
X0067284Y0185856D01*
X0067274Y0185945D01*
X0067268Y0186034D01*
X0067266Y0186123D01*
X0047266Y0186123D02*
X0047268Y0186212D01*
X0047274Y0186301D01*
X0047284Y0186390D01*
X0047298Y0186478D01*
X0047315Y0186565D01*
X0047337Y0186651D01*
X0047363Y0186737D01*
X0047392Y0186821D01*
X0047425Y0186904D01*
X0047461Y0186985D01*
X0047502Y0187065D01*
X0047545Y0187142D01*
X0047592Y0187218D01*
X0047643Y0187291D01*
X0047696Y0187362D01*
X0047753Y0187431D01*
X0047813Y0187497D01*
X0047876Y0187561D01*
X0047941Y0187621D01*
X0048009Y0187679D01*
X0048080Y0187733D01*
X0048153Y0187784D01*
X0048228Y0187832D01*
X0048305Y0187877D01*
X0048384Y0187918D01*
X0048465Y0187955D01*
X0048547Y0187989D01*
X0048631Y0188020D01*
X0048716Y0188046D01*
X0048802Y0188069D01*
X0048889Y0188087D01*
X0048977Y0188102D01*
X0049066Y0188113D01*
X0049155Y0188120D01*
X0049244Y0188123D01*
X0049333Y0188122D01*
X0049422Y0188117D01*
X0049510Y0188108D01*
X0049599Y0188095D01*
X0049686Y0188078D01*
X0049773Y0188058D01*
X0049859Y0188033D01*
X0049943Y0188005D01*
X0050026Y0187973D01*
X0050108Y0187937D01*
X0050188Y0187898D01*
X0050266Y0187855D01*
X0050342Y0187809D01*
X0050416Y0187759D01*
X0050488Y0187706D01*
X0050557Y0187650D01*
X0050624Y0187591D01*
X0050688Y0187529D01*
X0050749Y0187465D01*
X0050808Y0187397D01*
X0050863Y0187327D01*
X0050915Y0187255D01*
X0050964Y0187180D01*
X0051009Y0187104D01*
X0051051Y0187025D01*
X0051089Y0186945D01*
X0051124Y0186863D01*
X0051155Y0186779D01*
X0051183Y0186694D01*
X0051206Y0186608D01*
X0051226Y0186521D01*
X0051242Y0186434D01*
X0051254Y0186345D01*
X0051262Y0186257D01*
X0051266Y0186168D01*
X0051266Y0186078D01*
X0051262Y0185989D01*
X0051254Y0185901D01*
X0051242Y0185812D01*
X0051226Y0185725D01*
X0051206Y0185638D01*
X0051183Y0185552D01*
X0051155Y0185467D01*
X0051124Y0185383D01*
X0051089Y0185301D01*
X0051051Y0185221D01*
X0051009Y0185142D01*
X0050964Y0185066D01*
X0050915Y0184991D01*
X0050863Y0184919D01*
X0050808Y0184849D01*
X0050749Y0184781D01*
X0050688Y0184717D01*
X0050624Y0184655D01*
X0050557Y0184596D01*
X0050488Y0184540D01*
X0050416Y0184487D01*
X0050342Y0184437D01*
X0050266Y0184391D01*
X0050188Y0184348D01*
X0050108Y0184309D01*
X0050026Y0184273D01*
X0049943Y0184241D01*
X0049859Y0184213D01*
X0049773Y0184188D01*
X0049686Y0184168D01*
X0049599Y0184151D01*
X0049510Y0184138D01*
X0049422Y0184129D01*
X0049333Y0184124D01*
X0049244Y0184123D01*
X0049155Y0184126D01*
X0049066Y0184133D01*
X0048977Y0184144D01*
X0048889Y0184159D01*
X0048802Y0184177D01*
X0048716Y0184200D01*
X0048631Y0184226D01*
X0048547Y0184257D01*
X0048465Y0184291D01*
X0048384Y0184328D01*
X0048305Y0184369D01*
X0048228Y0184414D01*
X0048153Y0184462D01*
X0048080Y0184513D01*
X0048009Y0184567D01*
X0047941Y0184625D01*
X0047876Y0184685D01*
X0047813Y0184749D01*
X0047753Y0184815D01*
X0047696Y0184884D01*
X0047643Y0184955D01*
X0047592Y0185028D01*
X0047545Y0185104D01*
X0047502Y0185181D01*
X0047461Y0185261D01*
X0047425Y0185342D01*
X0047392Y0185425D01*
X0047363Y0185509D01*
X0047337Y0185595D01*
X0047315Y0185681D01*
X0047298Y0185768D01*
X0047284Y0185856D01*
X0047274Y0185945D01*
X0047268Y0186034D01*
X0047266Y0186123D01*
X0027266Y0186123D02*
X0027268Y0186212D01*
X0027274Y0186301D01*
X0027284Y0186390D01*
X0027298Y0186478D01*
X0027315Y0186565D01*
X0027337Y0186651D01*
X0027363Y0186737D01*
X0027392Y0186821D01*
X0027425Y0186904D01*
X0027461Y0186985D01*
X0027502Y0187065D01*
X0027545Y0187142D01*
X0027592Y0187218D01*
X0027643Y0187291D01*
X0027696Y0187362D01*
X0027753Y0187431D01*
X0027813Y0187497D01*
X0027876Y0187561D01*
X0027941Y0187621D01*
X0028009Y0187679D01*
X0028080Y0187733D01*
X0028153Y0187784D01*
X0028228Y0187832D01*
X0028305Y0187877D01*
X0028384Y0187918D01*
X0028465Y0187955D01*
X0028547Y0187989D01*
X0028631Y0188020D01*
X0028716Y0188046D01*
X0028802Y0188069D01*
X0028889Y0188087D01*
X0028977Y0188102D01*
X0029066Y0188113D01*
X0029155Y0188120D01*
X0029244Y0188123D01*
X0029333Y0188122D01*
X0029422Y0188117D01*
X0029510Y0188108D01*
X0029599Y0188095D01*
X0029686Y0188078D01*
X0029773Y0188058D01*
X0029859Y0188033D01*
X0029943Y0188005D01*
X0030026Y0187973D01*
X0030108Y0187937D01*
X0030188Y0187898D01*
X0030266Y0187855D01*
X0030342Y0187809D01*
X0030416Y0187759D01*
X0030488Y0187706D01*
X0030557Y0187650D01*
X0030624Y0187591D01*
X0030688Y0187529D01*
X0030749Y0187465D01*
X0030808Y0187397D01*
X0030863Y0187327D01*
X0030915Y0187255D01*
X0030964Y0187180D01*
X0031009Y0187104D01*
X0031051Y0187025D01*
X0031089Y0186945D01*
X0031124Y0186863D01*
X0031155Y0186779D01*
X0031183Y0186694D01*
X0031206Y0186608D01*
X0031226Y0186521D01*
X0031242Y0186434D01*
X0031254Y0186345D01*
X0031262Y0186257D01*
X0031266Y0186168D01*
X0031266Y0186078D01*
X0031262Y0185989D01*
X0031254Y0185901D01*
X0031242Y0185812D01*
X0031226Y0185725D01*
X0031206Y0185638D01*
X0031183Y0185552D01*
X0031155Y0185467D01*
X0031124Y0185383D01*
X0031089Y0185301D01*
X0031051Y0185221D01*
X0031009Y0185142D01*
X0030964Y0185066D01*
X0030915Y0184991D01*
X0030863Y0184919D01*
X0030808Y0184849D01*
X0030749Y0184781D01*
X0030688Y0184717D01*
X0030624Y0184655D01*
X0030557Y0184596D01*
X0030488Y0184540D01*
X0030416Y0184487D01*
X0030342Y0184437D01*
X0030266Y0184391D01*
X0030188Y0184348D01*
X0030108Y0184309D01*
X0030026Y0184273D01*
X0029943Y0184241D01*
X0029859Y0184213D01*
X0029773Y0184188D01*
X0029686Y0184168D01*
X0029599Y0184151D01*
X0029510Y0184138D01*
X0029422Y0184129D01*
X0029333Y0184124D01*
X0029244Y0184123D01*
X0029155Y0184126D01*
X0029066Y0184133D01*
X0028977Y0184144D01*
X0028889Y0184159D01*
X0028802Y0184177D01*
X0028716Y0184200D01*
X0028631Y0184226D01*
X0028547Y0184257D01*
X0028465Y0184291D01*
X0028384Y0184328D01*
X0028305Y0184369D01*
X0028228Y0184414D01*
X0028153Y0184462D01*
X0028080Y0184513D01*
X0028009Y0184567D01*
X0027941Y0184625D01*
X0027876Y0184685D01*
X0027813Y0184749D01*
X0027753Y0184815D01*
X0027696Y0184884D01*
X0027643Y0184955D01*
X0027592Y0185028D01*
X0027545Y0185104D01*
X0027502Y0185181D01*
X0027461Y0185261D01*
X0027425Y0185342D01*
X0027392Y0185425D01*
X0027363Y0185509D01*
X0027337Y0185595D01*
X0027315Y0185681D01*
X0027298Y0185768D01*
X0027284Y0185856D01*
X0027274Y0185945D01*
X0027268Y0186034D01*
X0027266Y0186123D01*
X0032766Y0206823D02*
X0045766Y0206823D01*
X0052766Y0206823D02*
X0065766Y0206823D01*
X0071648Y0170232D02*
X0074148Y0170232D01*
X0071648Y0170232D02*
X0071648Y0149232D01*
X0071648Y0144232D02*
X0071648Y0123232D01*
X0074148Y0123232D01*
X0101333Y0113248D02*
X0101333Y0048248D01*
X0012333Y0048248D01*
X0012333Y0113248D01*
X0101333Y0113248D01*
X0073833Y0104248D02*
X0071333Y0104248D01*
X0071333Y0083248D01*
X0076333Y0083248D02*
X0066333Y0078248D01*
X0063833Y0080748D02*
X0037833Y0080748D01*
X0035333Y0078248D02*
X0035333Y0066048D01*
X0035333Y0083248D02*
X0035333Y0095548D01*
X0071333Y0078248D02*
X0071333Y0057248D01*
X0073833Y0057248D01*
X0078203Y0047500D02*
X0078203Y0046500D01*
X0018203Y0046500D01*
X0018203Y0020500D01*
X0024703Y0020500D01*
X0018203Y0020500D02*
X0018203Y0011000D01*
X0078203Y0011000D01*
X0078203Y0020500D01*
X0071703Y0020500D01*
X0078203Y0020500D02*
X0078203Y0046500D01*
X0078203Y0047500D02*
X0018203Y0047500D01*
X0018203Y0046500D01*
X0026203Y0041200D02*
X0026205Y0041289D01*
X0026211Y0041378D01*
X0026221Y0041467D01*
X0026235Y0041555D01*
X0026252Y0041642D01*
X0026274Y0041728D01*
X0026300Y0041814D01*
X0026329Y0041898D01*
X0026362Y0041981D01*
X0026398Y0042062D01*
X0026439Y0042142D01*
X0026482Y0042219D01*
X0026529Y0042295D01*
X0026580Y0042368D01*
X0026633Y0042439D01*
X0026690Y0042508D01*
X0026750Y0042574D01*
X0026813Y0042638D01*
X0026878Y0042698D01*
X0026946Y0042756D01*
X0027017Y0042810D01*
X0027090Y0042861D01*
X0027165Y0042909D01*
X0027242Y0042954D01*
X0027321Y0042995D01*
X0027402Y0043032D01*
X0027484Y0043066D01*
X0027568Y0043097D01*
X0027653Y0043123D01*
X0027739Y0043146D01*
X0027826Y0043164D01*
X0027914Y0043179D01*
X0028003Y0043190D01*
X0028092Y0043197D01*
X0028181Y0043200D01*
X0028270Y0043199D01*
X0028359Y0043194D01*
X0028447Y0043185D01*
X0028536Y0043172D01*
X0028623Y0043155D01*
X0028710Y0043135D01*
X0028796Y0043110D01*
X0028880Y0043082D01*
X0028963Y0043050D01*
X0029045Y0043014D01*
X0029125Y0042975D01*
X0029203Y0042932D01*
X0029279Y0042886D01*
X0029353Y0042836D01*
X0029425Y0042783D01*
X0029494Y0042727D01*
X0029561Y0042668D01*
X0029625Y0042606D01*
X0029686Y0042542D01*
X0029745Y0042474D01*
X0029800Y0042404D01*
X0029852Y0042332D01*
X0029901Y0042257D01*
X0029946Y0042181D01*
X0029988Y0042102D01*
X0030026Y0042022D01*
X0030061Y0041940D01*
X0030092Y0041856D01*
X0030120Y0041771D01*
X0030143Y0041685D01*
X0030163Y0041598D01*
X0030179Y0041511D01*
X0030191Y0041422D01*
X0030199Y0041334D01*
X0030203Y0041245D01*
X0030203Y0041155D01*
X0030199Y0041066D01*
X0030191Y0040978D01*
X0030179Y0040889D01*
X0030163Y0040802D01*
X0030143Y0040715D01*
X0030120Y0040629D01*
X0030092Y0040544D01*
X0030061Y0040460D01*
X0030026Y0040378D01*
X0029988Y0040298D01*
X0029946Y0040219D01*
X0029901Y0040143D01*
X0029852Y0040068D01*
X0029800Y0039996D01*
X0029745Y0039926D01*
X0029686Y0039858D01*
X0029625Y0039794D01*
X0029561Y0039732D01*
X0029494Y0039673D01*
X0029425Y0039617D01*
X0029353Y0039564D01*
X0029279Y0039514D01*
X0029203Y0039468D01*
X0029125Y0039425D01*
X0029045Y0039386D01*
X0028963Y0039350D01*
X0028880Y0039318D01*
X0028796Y0039290D01*
X0028710Y0039265D01*
X0028623Y0039245D01*
X0028536Y0039228D01*
X0028447Y0039215D01*
X0028359Y0039206D01*
X0028270Y0039201D01*
X0028181Y0039200D01*
X0028092Y0039203D01*
X0028003Y0039210D01*
X0027914Y0039221D01*
X0027826Y0039236D01*
X0027739Y0039254D01*
X0027653Y0039277D01*
X0027568Y0039303D01*
X0027484Y0039334D01*
X0027402Y0039368D01*
X0027321Y0039405D01*
X0027242Y0039446D01*
X0027165Y0039491D01*
X0027090Y0039539D01*
X0027017Y0039590D01*
X0026946Y0039644D01*
X0026878Y0039702D01*
X0026813Y0039762D01*
X0026750Y0039826D01*
X0026690Y0039892D01*
X0026633Y0039961D01*
X0026580Y0040032D01*
X0026529Y0040105D01*
X0026482Y0040181D01*
X0026439Y0040258D01*
X0026398Y0040338D01*
X0026362Y0040419D01*
X0026329Y0040502D01*
X0026300Y0040586D01*
X0026274Y0040672D01*
X0026252Y0040758D01*
X0026235Y0040845D01*
X0026221Y0040933D01*
X0026211Y0041022D01*
X0026205Y0041111D01*
X0026203Y0041200D01*
X0046203Y0041200D02*
X0046205Y0041289D01*
X0046211Y0041378D01*
X0046221Y0041467D01*
X0046235Y0041555D01*
X0046252Y0041642D01*
X0046274Y0041728D01*
X0046300Y0041814D01*
X0046329Y0041898D01*
X0046362Y0041981D01*
X0046398Y0042062D01*
X0046439Y0042142D01*
X0046482Y0042219D01*
X0046529Y0042295D01*
X0046580Y0042368D01*
X0046633Y0042439D01*
X0046690Y0042508D01*
X0046750Y0042574D01*
X0046813Y0042638D01*
X0046878Y0042698D01*
X0046946Y0042756D01*
X0047017Y0042810D01*
X0047090Y0042861D01*
X0047165Y0042909D01*
X0047242Y0042954D01*
X0047321Y0042995D01*
X0047402Y0043032D01*
X0047484Y0043066D01*
X0047568Y0043097D01*
X0047653Y0043123D01*
X0047739Y0043146D01*
X0047826Y0043164D01*
X0047914Y0043179D01*
X0048003Y0043190D01*
X0048092Y0043197D01*
X0048181Y0043200D01*
X0048270Y0043199D01*
X0048359Y0043194D01*
X0048447Y0043185D01*
X0048536Y0043172D01*
X0048623Y0043155D01*
X0048710Y0043135D01*
X0048796Y0043110D01*
X0048880Y0043082D01*
X0048963Y0043050D01*
X0049045Y0043014D01*
X0049125Y0042975D01*
X0049203Y0042932D01*
X0049279Y0042886D01*
X0049353Y0042836D01*
X0049425Y0042783D01*
X0049494Y0042727D01*
X0049561Y0042668D01*
X0049625Y0042606D01*
X0049686Y0042542D01*
X0049745Y0042474D01*
X0049800Y0042404D01*
X0049852Y0042332D01*
X0049901Y0042257D01*
X0049946Y0042181D01*
X0049988Y0042102D01*
X0050026Y0042022D01*
X0050061Y0041940D01*
X0050092Y0041856D01*
X0050120Y0041771D01*
X0050143Y0041685D01*
X0050163Y0041598D01*
X0050179Y0041511D01*
X0050191Y0041422D01*
X0050199Y0041334D01*
X0050203Y0041245D01*
X0050203Y0041155D01*
X0050199Y0041066D01*
X0050191Y0040978D01*
X0050179Y0040889D01*
X0050163Y0040802D01*
X0050143Y0040715D01*
X0050120Y0040629D01*
X0050092Y0040544D01*
X0050061Y0040460D01*
X0050026Y0040378D01*
X0049988Y0040298D01*
X0049946Y0040219D01*
X0049901Y0040143D01*
X0049852Y0040068D01*
X0049800Y0039996D01*
X0049745Y0039926D01*
X0049686Y0039858D01*
X0049625Y0039794D01*
X0049561Y0039732D01*
X0049494Y0039673D01*
X0049425Y0039617D01*
X0049353Y0039564D01*
X0049279Y0039514D01*
X0049203Y0039468D01*
X0049125Y0039425D01*
X0049045Y0039386D01*
X0048963Y0039350D01*
X0048880Y0039318D01*
X0048796Y0039290D01*
X0048710Y0039265D01*
X0048623Y0039245D01*
X0048536Y0039228D01*
X0048447Y0039215D01*
X0048359Y0039206D01*
X0048270Y0039201D01*
X0048181Y0039200D01*
X0048092Y0039203D01*
X0048003Y0039210D01*
X0047914Y0039221D01*
X0047826Y0039236D01*
X0047739Y0039254D01*
X0047653Y0039277D01*
X0047568Y0039303D01*
X0047484Y0039334D01*
X0047402Y0039368D01*
X0047321Y0039405D01*
X0047242Y0039446D01*
X0047165Y0039491D01*
X0047090Y0039539D01*
X0047017Y0039590D01*
X0046946Y0039644D01*
X0046878Y0039702D01*
X0046813Y0039762D01*
X0046750Y0039826D01*
X0046690Y0039892D01*
X0046633Y0039961D01*
X0046580Y0040032D01*
X0046529Y0040105D01*
X0046482Y0040181D01*
X0046439Y0040258D01*
X0046398Y0040338D01*
X0046362Y0040419D01*
X0046329Y0040502D01*
X0046300Y0040586D01*
X0046274Y0040672D01*
X0046252Y0040758D01*
X0046235Y0040845D01*
X0046221Y0040933D01*
X0046211Y0041022D01*
X0046205Y0041111D01*
X0046203Y0041200D01*
X0066203Y0041200D02*
X0066205Y0041289D01*
X0066211Y0041378D01*
X0066221Y0041467D01*
X0066235Y0041555D01*
X0066252Y0041642D01*
X0066274Y0041728D01*
X0066300Y0041814D01*
X0066329Y0041898D01*
X0066362Y0041981D01*
X0066398Y0042062D01*
X0066439Y0042142D01*
X0066482Y0042219D01*
X0066529Y0042295D01*
X0066580Y0042368D01*
X0066633Y0042439D01*
X0066690Y0042508D01*
X0066750Y0042574D01*
X0066813Y0042638D01*
X0066878Y0042698D01*
X0066946Y0042756D01*
X0067017Y0042810D01*
X0067090Y0042861D01*
X0067165Y0042909D01*
X0067242Y0042954D01*
X0067321Y0042995D01*
X0067402Y0043032D01*
X0067484Y0043066D01*
X0067568Y0043097D01*
X0067653Y0043123D01*
X0067739Y0043146D01*
X0067826Y0043164D01*
X0067914Y0043179D01*
X0068003Y0043190D01*
X0068092Y0043197D01*
X0068181Y0043200D01*
X0068270Y0043199D01*
X0068359Y0043194D01*
X0068447Y0043185D01*
X0068536Y0043172D01*
X0068623Y0043155D01*
X0068710Y0043135D01*
X0068796Y0043110D01*
X0068880Y0043082D01*
X0068963Y0043050D01*
X0069045Y0043014D01*
X0069125Y0042975D01*
X0069203Y0042932D01*
X0069279Y0042886D01*
X0069353Y0042836D01*
X0069425Y0042783D01*
X0069494Y0042727D01*
X0069561Y0042668D01*
X0069625Y0042606D01*
X0069686Y0042542D01*
X0069745Y0042474D01*
X0069800Y0042404D01*
X0069852Y0042332D01*
X0069901Y0042257D01*
X0069946Y0042181D01*
X0069988Y0042102D01*
X0070026Y0042022D01*
X0070061Y0041940D01*
X0070092Y0041856D01*
X0070120Y0041771D01*
X0070143Y0041685D01*
X0070163Y0041598D01*
X0070179Y0041511D01*
X0070191Y0041422D01*
X0070199Y0041334D01*
X0070203Y0041245D01*
X0070203Y0041155D01*
X0070199Y0041066D01*
X0070191Y0040978D01*
X0070179Y0040889D01*
X0070163Y0040802D01*
X0070143Y0040715D01*
X0070120Y0040629D01*
X0070092Y0040544D01*
X0070061Y0040460D01*
X0070026Y0040378D01*
X0069988Y0040298D01*
X0069946Y0040219D01*
X0069901Y0040143D01*
X0069852Y0040068D01*
X0069800Y0039996D01*
X0069745Y0039926D01*
X0069686Y0039858D01*
X0069625Y0039794D01*
X0069561Y0039732D01*
X0069494Y0039673D01*
X0069425Y0039617D01*
X0069353Y0039564D01*
X0069279Y0039514D01*
X0069203Y0039468D01*
X0069125Y0039425D01*
X0069045Y0039386D01*
X0068963Y0039350D01*
X0068880Y0039318D01*
X0068796Y0039290D01*
X0068710Y0039265D01*
X0068623Y0039245D01*
X0068536Y0039228D01*
X0068447Y0039215D01*
X0068359Y0039206D01*
X0068270Y0039201D01*
X0068181Y0039200D01*
X0068092Y0039203D01*
X0068003Y0039210D01*
X0067914Y0039221D01*
X0067826Y0039236D01*
X0067739Y0039254D01*
X0067653Y0039277D01*
X0067568Y0039303D01*
X0067484Y0039334D01*
X0067402Y0039368D01*
X0067321Y0039405D01*
X0067242Y0039446D01*
X0067165Y0039491D01*
X0067090Y0039539D01*
X0067017Y0039590D01*
X0066946Y0039644D01*
X0066878Y0039702D01*
X0066813Y0039762D01*
X0066750Y0039826D01*
X0066690Y0039892D01*
X0066633Y0039961D01*
X0066580Y0040032D01*
X0066529Y0040105D01*
X0066482Y0040181D01*
X0066439Y0040258D01*
X0066398Y0040338D01*
X0066362Y0040419D01*
X0066329Y0040502D01*
X0066300Y0040586D01*
X0066274Y0040672D01*
X0066252Y0040758D01*
X0066235Y0040845D01*
X0066221Y0040933D01*
X0066211Y0041022D01*
X0066205Y0041111D01*
X0066203Y0041200D01*
X0064703Y0020500D02*
X0051703Y0020500D01*
X0044703Y0020500D02*
X0031703Y0020500D01*
X0102050Y0067205D02*
X0111050Y0067205D01*
X0111110Y0067207D01*
X0111171Y0067212D01*
X0111230Y0067221D01*
X0111289Y0067234D01*
X0111348Y0067250D01*
X0111405Y0067270D01*
X0111460Y0067293D01*
X0111515Y0067320D01*
X0111567Y0067349D01*
X0111618Y0067382D01*
X0111667Y0067418D01*
X0111713Y0067456D01*
X0111757Y0067498D01*
X0111799Y0067542D01*
X0111837Y0067588D01*
X0111873Y0067637D01*
X0111906Y0067688D01*
X0111935Y0067740D01*
X0111962Y0067795D01*
X0111985Y0067850D01*
X0112005Y0067907D01*
X0112021Y0067966D01*
X0112034Y0068025D01*
X0112043Y0068084D01*
X0112048Y0068145D01*
X0112050Y0068205D01*
X0112050Y0096205D01*
X0112048Y0096265D01*
X0112043Y0096326D01*
X0112034Y0096385D01*
X0112021Y0096444D01*
X0112005Y0096503D01*
X0111985Y0096560D01*
X0111962Y0096615D01*
X0111935Y0096670D01*
X0111906Y0096722D01*
X0111873Y0096773D01*
X0111837Y0096822D01*
X0111799Y0096868D01*
X0111757Y0096912D01*
X0111713Y0096954D01*
X0111667Y0096992D01*
X0111618Y0097028D01*
X0111567Y0097061D01*
X0111515Y0097090D01*
X0111460Y0097117D01*
X0111405Y0097140D01*
X0111348Y0097160D01*
X0111289Y0097176D01*
X0111230Y0097189D01*
X0111171Y0097198D01*
X0111110Y0097203D01*
X0111050Y0097205D01*
X0102050Y0097205D01*
X0101990Y0097203D01*
X0101929Y0097198D01*
X0101870Y0097189D01*
X0101811Y0097176D01*
X0101752Y0097160D01*
X0101695Y0097140D01*
X0101640Y0097117D01*
X0101585Y0097090D01*
X0101533Y0097061D01*
X0101482Y0097028D01*
X0101433Y0096992D01*
X0101387Y0096954D01*
X0101343Y0096912D01*
X0101301Y0096868D01*
X0101263Y0096822D01*
X0101227Y0096773D01*
X0101194Y0096722D01*
X0101165Y0096670D01*
X0101138Y0096615D01*
X0101115Y0096560D01*
X0101095Y0096503D01*
X0101079Y0096444D01*
X0101066Y0096385D01*
X0101057Y0096326D01*
X0101052Y0096265D01*
X0101050Y0096205D01*
X0101050Y0068205D01*
X0101052Y0068145D01*
X0101057Y0068084D01*
X0101066Y0068025D01*
X0101079Y0067966D01*
X0101095Y0067907D01*
X0101115Y0067850D01*
X0101138Y0067795D01*
X0101165Y0067740D01*
X0101194Y0067688D01*
X0101227Y0067637D01*
X0101263Y0067588D01*
X0101301Y0067542D01*
X0101343Y0067498D01*
X0101387Y0067456D01*
X0101433Y0067418D01*
X0101482Y0067382D01*
X0101533Y0067349D01*
X0101585Y0067320D01*
X0101640Y0067293D01*
X0101695Y0067270D01*
X0101752Y0067250D01*
X0101811Y0067234D01*
X0101870Y0067221D01*
X0101929Y0067212D01*
X0101990Y0067207D01*
X0102050Y0067205D01*
X0106550Y0077705D02*
X0106550Y0080205D01*
X0109050Y0080205D01*
X0106550Y0080205D02*
X0104050Y0080205D01*
X0106550Y0080205D02*
X0104050Y0084205D01*
X0109050Y0084205D01*
X0106550Y0080205D01*
X0106550Y0086205D01*
X0082833Y0080748D02*
X0078833Y0080748D01*
X0076333Y0078248D02*
X0076333Y0083248D01*
X0149503Y0076949D02*
X0149503Y0071949D01*
X0152003Y0069449D01*
X0157003Y0069449D01*
X0159503Y0071949D01*
X0159503Y0076949D01*
X0157003Y0079449D01*
X0152003Y0079449D01*
X0149503Y0076949D01*
X0152003Y0069449D02*
X0149503Y0066949D01*
X0149503Y0061949D01*
X0152003Y0059449D01*
X0157003Y0059449D01*
X0159503Y0061949D01*
X0159503Y0066949D01*
X0157003Y0069449D01*
X0160483Y0093295D02*
X0161983Y0093295D01*
X0162483Y0093795D01*
X0181483Y0093795D01*
X0181983Y0093295D01*
X0183483Y0093295D01*
X0183543Y0093297D01*
X0183604Y0093302D01*
X0183663Y0093311D01*
X0183722Y0093324D01*
X0183781Y0093340D01*
X0183838Y0093360D01*
X0183893Y0093383D01*
X0183948Y0093410D01*
X0184000Y0093439D01*
X0184051Y0093472D01*
X0184100Y0093508D01*
X0184146Y0093546D01*
X0184190Y0093588D01*
X0184232Y0093632D01*
X0184270Y0093678D01*
X0184306Y0093727D01*
X0184339Y0093778D01*
X0184368Y0093830D01*
X0184395Y0093885D01*
X0184418Y0093940D01*
X0184438Y0093997D01*
X0184454Y0094056D01*
X0184467Y0094115D01*
X0184476Y0094174D01*
X0184481Y0094235D01*
X0184483Y0094295D01*
X0184483Y0101295D01*
X0184481Y0101355D01*
X0184476Y0101416D01*
X0184467Y0101475D01*
X0184454Y0101534D01*
X0184438Y0101593D01*
X0184418Y0101650D01*
X0184395Y0101705D01*
X0184368Y0101760D01*
X0184339Y0101812D01*
X0184306Y0101863D01*
X0184270Y0101912D01*
X0184232Y0101958D01*
X0184190Y0102002D01*
X0184146Y0102044D01*
X0184100Y0102082D01*
X0184051Y0102118D01*
X0184000Y0102151D01*
X0183948Y0102180D01*
X0183893Y0102207D01*
X0183838Y0102230D01*
X0183781Y0102250D01*
X0183722Y0102266D01*
X0183663Y0102279D01*
X0183604Y0102288D01*
X0183543Y0102293D01*
X0183483Y0102295D01*
X0181983Y0102295D01*
X0181483Y0101795D01*
X0162483Y0101795D01*
X0161983Y0102295D01*
X0160483Y0102295D01*
X0160423Y0102293D01*
X0160362Y0102288D01*
X0160303Y0102279D01*
X0160244Y0102266D01*
X0160185Y0102250D01*
X0160128Y0102230D01*
X0160073Y0102207D01*
X0160018Y0102180D01*
X0159966Y0102151D01*
X0159915Y0102118D01*
X0159866Y0102082D01*
X0159820Y0102044D01*
X0159776Y0102002D01*
X0159734Y0101958D01*
X0159696Y0101912D01*
X0159660Y0101863D01*
X0159627Y0101812D01*
X0159598Y0101760D01*
X0159571Y0101705D01*
X0159548Y0101650D01*
X0159528Y0101593D01*
X0159512Y0101534D01*
X0159499Y0101475D01*
X0159490Y0101416D01*
X0159485Y0101355D01*
X0159483Y0101295D01*
X0159483Y0094295D01*
X0159485Y0094235D01*
X0159490Y0094174D01*
X0159499Y0094115D01*
X0159512Y0094056D01*
X0159528Y0093997D01*
X0159548Y0093940D01*
X0159571Y0093885D01*
X0159598Y0093830D01*
X0159627Y0093778D01*
X0159660Y0093727D01*
X0159696Y0093678D01*
X0159734Y0093632D01*
X0159776Y0093588D01*
X0159820Y0093546D01*
X0159866Y0093508D01*
X0159915Y0093472D01*
X0159966Y0093439D01*
X0160018Y0093410D01*
X0160073Y0093383D01*
X0160128Y0093360D01*
X0160185Y0093340D01*
X0160244Y0093324D01*
X0160303Y0093311D01*
X0160362Y0093302D01*
X0160423Y0093297D01*
X0160483Y0093295D01*
D12*
X0023956Y0003250D02*
X0020953Y0003250D01*
X0020953Y0007754D01*
X0023956Y0007754D01*
X0025557Y0007003D02*
X0026308Y0007754D01*
X0027809Y0007754D01*
X0028560Y0007003D01*
X0030161Y0007003D02*
X0030912Y0007754D01*
X0032413Y0007754D01*
X0033164Y0007003D01*
X0033164Y0006253D01*
X0030161Y0003250D01*
X0033164Y0003250D01*
X0034765Y0005502D02*
X0037768Y0005502D01*
X0037017Y0003250D02*
X0037017Y0007754D01*
X0034765Y0005502D01*
X0028560Y0004751D02*
X0028560Y0004001D01*
X0027809Y0003250D01*
X0026308Y0003250D01*
X0025557Y0004001D01*
X0026308Y0005502D02*
X0025557Y0006253D01*
X0025557Y0007003D01*
X0026308Y0005502D02*
X0027809Y0005502D01*
X0028560Y0004751D01*
X0027059Y0002499D02*
X0027059Y0008504D01*
X0022455Y0005502D02*
X0020953Y0005502D01*
X0094796Y0067955D02*
X0099300Y0067955D01*
X0099300Y0070957D01*
X0098549Y0072559D02*
X0099300Y0073309D01*
X0099300Y0074811D01*
X0098549Y0075561D01*
X0097799Y0075561D01*
X0097048Y0074811D01*
X0097048Y0073309D01*
X0096297Y0072559D01*
X0095547Y0072559D01*
X0094796Y0073309D01*
X0094796Y0074811D01*
X0095547Y0075561D01*
X0096297Y0077163D02*
X0094796Y0078664D01*
X0099300Y0078664D01*
X0099300Y0077163D02*
X0099300Y0080165D01*
X0098549Y0081766D02*
X0095547Y0084769D01*
X0098549Y0084769D01*
X0099300Y0084018D01*
X0099300Y0082517D01*
X0098549Y0081766D01*
X0095547Y0081766D01*
X0094796Y0082517D01*
X0094796Y0084018D01*
X0095547Y0084769D01*
X0094045Y0074060D02*
X0100051Y0074060D01*
X0094796Y0070957D02*
X0094796Y0067955D01*
X0097048Y0067955D02*
X0097048Y0069456D01*
X0141798Y0065504D02*
X0147803Y0065504D01*
X0147053Y0064753D02*
X0147053Y0066255D01*
X0146302Y0067005D01*
X0145551Y0067005D01*
X0144801Y0066255D01*
X0144801Y0064753D01*
X0144050Y0064003D01*
X0143299Y0064003D01*
X0142549Y0064753D01*
X0142549Y0066255D01*
X0143299Y0067005D01*
X0144050Y0068607D02*
X0142549Y0070108D01*
X0147053Y0070108D01*
X0147053Y0068607D02*
X0147053Y0071609D01*
X0146302Y0073211D02*
X0147053Y0073961D01*
X0147053Y0075463D01*
X0146302Y0076213D01*
X0145551Y0076213D01*
X0144801Y0075463D01*
X0144801Y0074712D01*
X0144801Y0075463D02*
X0144050Y0076213D01*
X0143299Y0076213D01*
X0142549Y0075463D01*
X0142549Y0073961D01*
X0143299Y0073211D01*
X0147053Y0064753D02*
X0146302Y0064003D01*
X0147053Y0062401D02*
X0147053Y0059399D01*
X0142549Y0059399D01*
X0142549Y0062401D01*
X0144801Y0060900D02*
X0144801Y0059399D01*
X0197851Y0083065D02*
X0200854Y0083065D01*
X0199352Y0083065D02*
X0199352Y0087569D01*
X0197851Y0086068D01*
X0202351Y0092065D02*
X0205354Y0092065D01*
X0206955Y0092816D02*
X0207706Y0092065D01*
X0209207Y0092065D01*
X0209958Y0092816D01*
X0209958Y0093566D01*
X0209207Y0094317D01*
X0207706Y0094317D01*
X0206955Y0095068D01*
X0206955Y0095818D01*
X0207706Y0096569D01*
X0209207Y0096569D01*
X0209958Y0095818D01*
X0211559Y0095818D02*
X0211559Y0095068D01*
X0212310Y0094317D01*
X0213811Y0094317D01*
X0214561Y0093566D01*
X0214561Y0092816D01*
X0213811Y0092065D01*
X0212310Y0092065D01*
X0211559Y0092816D01*
X0211559Y0093566D01*
X0212310Y0094317D01*
X0213811Y0094317D02*
X0214561Y0095068D01*
X0214561Y0095818D01*
X0213811Y0096569D01*
X0212310Y0096569D01*
X0211559Y0095818D01*
X0208456Y0097319D02*
X0208456Y0091314D01*
X0203852Y0094317D02*
X0202351Y0094317D01*
X0202351Y0096569D02*
X0202351Y0092065D01*
X0202351Y0096569D02*
X0205354Y0096569D01*
X0172443Y0104796D02*
X0171693Y0104045D01*
X0170191Y0104045D01*
X0169441Y0104796D01*
X0169441Y0106297D02*
X0170942Y0107048D01*
X0171693Y0107048D01*
X0172443Y0106297D01*
X0172443Y0104796D01*
X0169441Y0106297D02*
X0169441Y0108549D01*
X0172443Y0108549D01*
X0167839Y0107798D02*
X0167089Y0108549D01*
X0165588Y0108549D01*
X0164837Y0107798D01*
X0164837Y0107048D01*
X0165588Y0106297D01*
X0167089Y0106297D01*
X0167839Y0105547D01*
X0167839Y0104796D01*
X0167089Y0104045D01*
X0165588Y0104045D01*
X0164837Y0104796D01*
X0163235Y0104045D02*
X0160233Y0104045D01*
X0160233Y0108549D01*
X0163235Y0108549D01*
X0161734Y0106297D02*
X0160233Y0106297D01*
X0166338Y0109300D02*
X0166338Y0103295D01*
X0098946Y0133742D02*
X0098946Y0136745D01*
X0098195Y0138346D02*
X0098946Y0139097D01*
X0098946Y0140598D01*
X0098195Y0141349D01*
X0097444Y0141349D01*
X0096694Y0140598D01*
X0096694Y0139097D01*
X0095943Y0138346D01*
X0095192Y0138346D01*
X0094442Y0139097D01*
X0094442Y0140598D01*
X0095192Y0141349D01*
X0095192Y0142950D02*
X0095943Y0142950D01*
X0096694Y0143701D01*
X0096694Y0145953D01*
X0098195Y0145953D02*
X0095192Y0145953D01*
X0094442Y0145202D01*
X0094442Y0143701D01*
X0095192Y0142950D01*
X0098195Y0142950D02*
X0098946Y0143701D01*
X0098946Y0145202D01*
X0098195Y0145953D01*
X0099696Y0139847D02*
X0093691Y0139847D01*
X0094442Y0136745D02*
X0094442Y0133742D01*
X0098946Y0133742D01*
X0096694Y0133742D02*
X0096694Y0135243D01*
X0157603Y0158065D02*
X0160606Y0158065D01*
X0162207Y0158816D02*
X0162958Y0158065D01*
X0164459Y0158065D01*
X0165209Y0158816D01*
X0165209Y0159566D01*
X0164459Y0160317D01*
X0162958Y0160317D01*
X0162207Y0161068D01*
X0162207Y0161818D01*
X0162958Y0162569D01*
X0164459Y0162569D01*
X0165209Y0161818D01*
X0166811Y0161068D02*
X0168312Y0162569D01*
X0168312Y0158065D01*
X0166811Y0158065D02*
X0169813Y0158065D01*
X0171415Y0158816D02*
X0172165Y0158065D01*
X0173667Y0158065D01*
X0174417Y0158816D01*
X0174417Y0159566D01*
X0173667Y0160317D01*
X0171415Y0160317D01*
X0171415Y0158816D01*
X0171415Y0160317D02*
X0172916Y0161818D01*
X0174417Y0162569D01*
X0163708Y0163319D02*
X0163708Y0157314D01*
X0159104Y0160317D02*
X0157603Y0160317D01*
X0157603Y0162569D02*
X0157603Y0158065D01*
X0157603Y0162569D02*
X0160606Y0162569D01*
X0199272Y0189939D02*
X0202275Y0189939D01*
X0203876Y0190690D02*
X0204627Y0189939D01*
X0206128Y0189939D01*
X0206879Y0190690D01*
X0206879Y0191440D01*
X0206128Y0192191D01*
X0204627Y0192191D01*
X0203876Y0192942D01*
X0203876Y0193692D01*
X0204627Y0194443D01*
X0206128Y0194443D01*
X0206879Y0193692D01*
X0208480Y0192942D02*
X0209981Y0194443D01*
X0209981Y0189939D01*
X0208480Y0189939D02*
X0211483Y0189939D01*
X0213084Y0189939D02*
X0216087Y0192942D01*
X0216087Y0193692D01*
X0215336Y0194443D01*
X0213835Y0194443D01*
X0213084Y0193692D01*
X0213084Y0189939D02*
X0216087Y0189939D01*
X0205378Y0189188D02*
X0205378Y0195193D01*
X0202275Y0194443D02*
X0199272Y0194443D01*
X0199272Y0189939D01*
X0199272Y0192191D02*
X0200774Y0192191D01*
X0075415Y0220323D02*
X0074664Y0219573D01*
X0073163Y0219573D01*
X0072412Y0220323D01*
X0070811Y0219573D02*
X0067809Y0219573D01*
X0070811Y0222575D01*
X0070811Y0223326D01*
X0070060Y0224077D01*
X0068559Y0224077D01*
X0067809Y0223326D01*
X0066207Y0223326D02*
X0065457Y0224077D01*
X0063955Y0224077D01*
X0063205Y0223326D01*
X0063205Y0222575D01*
X0063955Y0221825D01*
X0065457Y0221825D01*
X0066207Y0221074D01*
X0066207Y0220323D01*
X0065457Y0219573D01*
X0063955Y0219573D01*
X0063205Y0220323D01*
X0061603Y0219573D02*
X0058601Y0219573D01*
X0058601Y0224077D01*
X0061603Y0224077D01*
X0060102Y0221825D02*
X0058601Y0221825D01*
X0064706Y0224827D02*
X0064706Y0218822D01*
X0072412Y0223326D02*
X0073163Y0224077D01*
X0074664Y0224077D01*
X0075415Y0223326D01*
X0075415Y0222575D01*
X0074664Y0221825D01*
X0075415Y0221074D01*
X0075415Y0220323D01*
X0074664Y0221825D02*
X0073914Y0221825D01*
X0262154Y0109348D02*
X0262154Y0104844D01*
X0265157Y0104844D01*
X0262154Y0104844D01*
X0262154Y0109348D01*
X0265157Y0109348D01*
X0262154Y0109348D01*
X0262154Y0107096D02*
X0263655Y0107096D01*
X0262154Y0107096D01*
X0266758Y0107847D02*
X0266758Y0108598D01*
X0267509Y0109348D01*
X0269010Y0109348D01*
X0269761Y0108598D01*
X0269010Y0109348D01*
X0267509Y0109348D01*
X0266758Y0108598D01*
X0266758Y0107847D01*
X0267509Y0107096D01*
X0269010Y0107096D01*
X0269761Y0106346D01*
X0269761Y0105595D01*
X0269010Y0104844D01*
X0267509Y0104844D01*
X0266758Y0105595D01*
X0267509Y0104844D01*
X0269010Y0104844D01*
X0269761Y0105595D01*
X0269761Y0106346D01*
X0269010Y0107096D01*
X0267509Y0107096D01*
X0266758Y0107847D01*
X0268259Y0110099D02*
X0268259Y0104094D01*
X0268259Y0110099D01*
X0271362Y0108598D02*
X0272113Y0109348D01*
X0273614Y0109348D01*
X0274365Y0108598D01*
X0274365Y0107847D01*
X0273614Y0107096D01*
X0274365Y0106346D01*
X0274365Y0105595D01*
X0273614Y0104844D01*
X0272113Y0104844D01*
X0271362Y0105595D01*
X0271362Y0107096D02*
X0274365Y0107096D01*
X0273614Y0107096D02*
X0272863Y0107096D01*
X0271362Y0107096D02*
X0273614Y0109348D01*
X0273614Y0104844D01*
X0245603Y0087569D02*
X0243351Y0085317D01*
X0246354Y0085317D01*
X0245603Y0083065D02*
X0245603Y0087569D01*
X0266072Y0082766D02*
X0266072Y0081265D01*
X0266822Y0080515D01*
X0267573Y0080515D01*
X0268324Y0081265D01*
X0268324Y0083517D01*
X0269825Y0083517D02*
X0266822Y0083517D01*
X0266072Y0082766D01*
X0269825Y0083517D02*
X0270575Y0082766D01*
X0270575Y0081265D01*
X0269825Y0080515D01*
X0270575Y0078913D02*
X0270575Y0075911D01*
X0270575Y0077412D02*
X0266072Y0077412D01*
X0267573Y0075911D01*
X0266822Y0074309D02*
X0266072Y0073559D01*
X0266072Y0072057D01*
X0266822Y0071307D01*
X0267573Y0071307D01*
X0268324Y0072057D01*
X0268324Y0073559D01*
X0269074Y0074309D01*
X0269825Y0074309D01*
X0270575Y0073559D01*
X0270575Y0072057D01*
X0269825Y0071307D01*
X0270575Y0069705D02*
X0270575Y0066703D01*
X0266072Y0066703D01*
X0266072Y0069705D01*
X0268324Y0068204D02*
X0268324Y0066703D01*
X0276741Y0066742D02*
X0281245Y0066742D01*
X0281245Y0069745D01*
X0281245Y0066742D01*
X0276741Y0066742D01*
X0276741Y0069745D01*
X0276741Y0066742D01*
X0278993Y0066742D02*
X0278993Y0068243D01*
X0278993Y0066742D01*
X0278242Y0071346D02*
X0277492Y0071346D01*
X0276741Y0072097D01*
X0276741Y0073598D01*
X0277492Y0074349D01*
X0276741Y0073598D01*
X0276741Y0072097D01*
X0277492Y0071346D01*
X0278242Y0071346D01*
X0278993Y0072097D01*
X0278993Y0073598D01*
X0279743Y0074349D01*
X0280494Y0074349D01*
X0281245Y0073598D01*
X0281245Y0072097D01*
X0280494Y0071346D01*
X0281245Y0072097D01*
X0281245Y0073598D01*
X0280494Y0074349D01*
X0279743Y0074349D01*
X0278993Y0073598D01*
X0278993Y0072097D01*
X0278242Y0071346D01*
X0275990Y0072847D02*
X0281995Y0072847D01*
X0275990Y0072847D01*
X0277492Y0075950D02*
X0276741Y0076701D01*
X0276741Y0078202D01*
X0277492Y0078953D01*
X0278242Y0078953D01*
X0281245Y0075950D01*
X0281245Y0078953D01*
X0281245Y0075950D01*
X0281245Y0077451D02*
X0276741Y0077451D01*
X0278242Y0075950D01*
X0271326Y0072808D02*
X0265321Y0072808D01*
X0276741Y0082055D02*
X0278242Y0080554D01*
X0276741Y0082055D02*
X0281245Y0082055D01*
X0281245Y0080554D02*
X0281245Y0083556D01*
X0327825Y0083321D02*
X0327825Y0078817D01*
X0330828Y0078817D01*
X0332429Y0079568D02*
X0333180Y0078817D01*
X0334681Y0078817D01*
X0335432Y0079568D01*
X0335432Y0080318D01*
X0334681Y0081069D01*
X0333180Y0081069D01*
X0332429Y0081819D01*
X0332429Y0082570D01*
X0333180Y0083321D01*
X0334681Y0083321D01*
X0335432Y0082570D01*
X0337033Y0082570D02*
X0337784Y0083321D01*
X0339285Y0083321D01*
X0340035Y0082570D01*
X0340035Y0081819D01*
X0337033Y0078817D01*
X0340035Y0078817D01*
X0341637Y0078817D02*
X0344639Y0078817D01*
X0343138Y0078817D02*
X0343138Y0083321D01*
X0341637Y0081819D01*
X0333930Y0084071D02*
X0333930Y0078066D01*
X0329326Y0081069D02*
X0327825Y0081069D01*
X0327825Y0083321D02*
X0330828Y0083321D01*
X0355237Y0067469D02*
X0355988Y0068219D01*
X0358990Y0065217D01*
X0359741Y0065968D01*
X0359741Y0067469D01*
X0358990Y0068219D01*
X0355988Y0068219D01*
X0355237Y0067469D02*
X0355237Y0065968D01*
X0355988Y0065217D01*
X0358990Y0065217D01*
X0359741Y0063616D02*
X0359741Y0060613D01*
X0356738Y0063616D01*
X0355988Y0063616D01*
X0355237Y0062865D01*
X0355237Y0061364D01*
X0355988Y0060613D01*
X0355988Y0059012D02*
X0355237Y0058261D01*
X0355237Y0056760D01*
X0355988Y0056009D01*
X0356738Y0056009D01*
X0357489Y0056760D01*
X0357489Y0058261D01*
X0358240Y0059012D01*
X0358990Y0059012D01*
X0359741Y0058261D01*
X0359741Y0056760D01*
X0358990Y0056009D01*
X0359741Y0054408D02*
X0359741Y0051405D01*
X0355237Y0051405D01*
X0355237Y0054408D01*
X0357489Y0052906D02*
X0357489Y0051405D01*
X0354486Y0057510D02*
X0360491Y0057510D01*
X0384282Y0078541D02*
X0387284Y0078541D01*
X0388886Y0079292D02*
X0389636Y0078541D01*
X0391138Y0078541D01*
X0391888Y0079292D01*
X0391888Y0080043D01*
X0391138Y0080793D01*
X0389636Y0080793D01*
X0388886Y0081544D01*
X0388886Y0082295D01*
X0389636Y0083045D01*
X0391138Y0083045D01*
X0391888Y0082295D01*
X0393490Y0082295D02*
X0394240Y0083045D01*
X0395742Y0083045D01*
X0396492Y0082295D01*
X0396492Y0081544D01*
X0393490Y0078541D01*
X0396492Y0078541D01*
X0398094Y0078541D02*
X0401096Y0081544D01*
X0401096Y0082295D01*
X0400345Y0083045D01*
X0398844Y0083045D01*
X0398094Y0082295D01*
X0398094Y0078541D02*
X0401096Y0078541D01*
X0390387Y0077791D02*
X0390387Y0083796D01*
X0387284Y0083045D02*
X0384282Y0083045D01*
X0384282Y0078541D01*
X0384282Y0080793D02*
X0385783Y0080793D01*
X0410355Y0067469D02*
X0412607Y0065217D01*
X0412607Y0068219D01*
X0414859Y0067469D02*
X0410355Y0067469D01*
X0410355Y0062114D02*
X0414859Y0062114D01*
X0414859Y0060613D02*
X0414859Y0063616D01*
X0411856Y0060613D02*
X0410355Y0062114D01*
X0411106Y0059012D02*
X0410355Y0058261D01*
X0410355Y0056760D01*
X0411106Y0056009D01*
X0411856Y0056009D01*
X0412607Y0056760D01*
X0412607Y0058261D01*
X0413358Y0059012D01*
X0414108Y0059012D01*
X0414859Y0058261D01*
X0414859Y0056760D01*
X0414108Y0056009D01*
X0414859Y0054408D02*
X0414859Y0051405D01*
X0410355Y0051405D01*
X0410355Y0054408D01*
X0412607Y0052906D02*
X0412607Y0051405D01*
X0409604Y0057510D02*
X0415610Y0057510D01*
D13*
X0404648Y0089291D03*
X0376248Y0089291D03*
X0348191Y0089567D03*
X0319791Y0089567D03*
X0186183Y0097795D03*
X0157783Y0097795D03*
D14*
X0167987Y0112677D02*
X0175822Y0112677D01*
X0183322Y0115177D02*
X0183322Y0133012D01*
X0175822Y0135512D02*
X0167987Y0135512D01*
X0160487Y0133012D02*
X0160487Y0115177D01*
X0165408Y0124094D02*
X0165410Y0124255D01*
X0165416Y0124415D01*
X0165426Y0124576D01*
X0165440Y0124736D01*
X0165458Y0124895D01*
X0165479Y0125055D01*
X0165505Y0125213D01*
X0165535Y0125371D01*
X0165568Y0125528D01*
X0165606Y0125685D01*
X0165647Y0125840D01*
X0165692Y0125994D01*
X0165741Y0126147D01*
X0165794Y0126299D01*
X0165850Y0126449D01*
X0165910Y0126598D01*
X0165974Y0126746D01*
X0166041Y0126892D01*
X0166112Y0127036D01*
X0166187Y0127178D01*
X0166265Y0127319D01*
X0166346Y0127457D01*
X0166431Y0127594D01*
X0166520Y0127728D01*
X0166611Y0127860D01*
X0166706Y0127990D01*
X0166804Y0128117D01*
X0166905Y0128242D01*
X0167009Y0128365D01*
X0167116Y0128484D01*
X0167226Y0128601D01*
X0167339Y0128716D01*
X0167455Y0128827D01*
X0167573Y0128936D01*
X0167694Y0129041D01*
X0167818Y0129144D01*
X0167944Y0129244D01*
X0168073Y0129340D01*
X0168204Y0129433D01*
X0168337Y0129523D01*
X0168472Y0129610D01*
X0168610Y0129693D01*
X0168749Y0129772D01*
X0168891Y0129849D01*
X0169034Y0129922D01*
X0169179Y0129991D01*
X0169326Y0130056D01*
X0169474Y0130118D01*
X0169624Y0130177D01*
X0169775Y0130231D01*
X0169927Y0130282D01*
X0170081Y0130329D01*
X0170236Y0130372D01*
X0170391Y0130411D01*
X0170548Y0130447D01*
X0170706Y0130479D01*
X0170864Y0130506D01*
X0171023Y0130530D01*
X0171182Y0130550D01*
X0171342Y0130566D01*
X0171503Y0130578D01*
X0171663Y0130586D01*
X0171824Y0130590D01*
X0171984Y0130590D01*
X0172145Y0130586D01*
X0172305Y0130578D01*
X0172466Y0130566D01*
X0172626Y0130550D01*
X0172785Y0130530D01*
X0172944Y0130506D01*
X0173102Y0130479D01*
X0173260Y0130447D01*
X0173417Y0130411D01*
X0173572Y0130372D01*
X0173727Y0130329D01*
X0173881Y0130282D01*
X0174033Y0130231D01*
X0174184Y0130177D01*
X0174334Y0130118D01*
X0174482Y0130056D01*
X0174629Y0129991D01*
X0174774Y0129922D01*
X0174917Y0129849D01*
X0175059Y0129772D01*
X0175198Y0129693D01*
X0175336Y0129610D01*
X0175471Y0129523D01*
X0175604Y0129433D01*
X0175735Y0129340D01*
X0175864Y0129244D01*
X0175990Y0129144D01*
X0176114Y0129041D01*
X0176235Y0128936D01*
X0176353Y0128827D01*
X0176469Y0128716D01*
X0176582Y0128601D01*
X0176692Y0128484D01*
X0176799Y0128365D01*
X0176903Y0128242D01*
X0177004Y0128117D01*
X0177102Y0127990D01*
X0177197Y0127860D01*
X0177288Y0127728D01*
X0177377Y0127594D01*
X0177462Y0127457D01*
X0177543Y0127319D01*
X0177621Y0127178D01*
X0177696Y0127036D01*
X0177767Y0126892D01*
X0177834Y0126746D01*
X0177898Y0126598D01*
X0177958Y0126449D01*
X0178014Y0126299D01*
X0178067Y0126147D01*
X0178116Y0125994D01*
X0178161Y0125840D01*
X0178202Y0125685D01*
X0178240Y0125528D01*
X0178273Y0125371D01*
X0178303Y0125213D01*
X0178329Y0125055D01*
X0178350Y0124895D01*
X0178368Y0124736D01*
X0178382Y0124576D01*
X0178392Y0124415D01*
X0178398Y0124255D01*
X0178400Y0124094D01*
X0178398Y0123933D01*
X0178392Y0123773D01*
X0178382Y0123612D01*
X0178368Y0123452D01*
X0178350Y0123293D01*
X0178329Y0123133D01*
X0178303Y0122975D01*
X0178273Y0122817D01*
X0178240Y0122660D01*
X0178202Y0122503D01*
X0178161Y0122348D01*
X0178116Y0122194D01*
X0178067Y0122041D01*
X0178014Y0121889D01*
X0177958Y0121739D01*
X0177898Y0121590D01*
X0177834Y0121442D01*
X0177767Y0121296D01*
X0177696Y0121152D01*
X0177621Y0121010D01*
X0177543Y0120869D01*
X0177462Y0120731D01*
X0177377Y0120594D01*
X0177288Y0120460D01*
X0177197Y0120328D01*
X0177102Y0120198D01*
X0177004Y0120071D01*
X0176903Y0119946D01*
X0176799Y0119823D01*
X0176692Y0119704D01*
X0176582Y0119587D01*
X0176469Y0119472D01*
X0176353Y0119361D01*
X0176235Y0119252D01*
X0176114Y0119147D01*
X0175990Y0119044D01*
X0175864Y0118944D01*
X0175735Y0118848D01*
X0175604Y0118755D01*
X0175471Y0118665D01*
X0175336Y0118578D01*
X0175198Y0118495D01*
X0175059Y0118416D01*
X0174917Y0118339D01*
X0174774Y0118266D01*
X0174629Y0118197D01*
X0174482Y0118132D01*
X0174334Y0118070D01*
X0174184Y0118011D01*
X0174033Y0117957D01*
X0173881Y0117906D01*
X0173727Y0117859D01*
X0173572Y0117816D01*
X0173417Y0117777D01*
X0173260Y0117741D01*
X0173102Y0117709D01*
X0172944Y0117682D01*
X0172785Y0117658D01*
X0172626Y0117638D01*
X0172466Y0117622D01*
X0172305Y0117610D01*
X0172145Y0117602D01*
X0171984Y0117598D01*
X0171824Y0117598D01*
X0171663Y0117602D01*
X0171503Y0117610D01*
X0171342Y0117622D01*
X0171182Y0117638D01*
X0171023Y0117658D01*
X0170864Y0117682D01*
X0170706Y0117709D01*
X0170548Y0117741D01*
X0170391Y0117777D01*
X0170236Y0117816D01*
X0170081Y0117859D01*
X0169927Y0117906D01*
X0169775Y0117957D01*
X0169624Y0118011D01*
X0169474Y0118070D01*
X0169326Y0118132D01*
X0169179Y0118197D01*
X0169034Y0118266D01*
X0168891Y0118339D01*
X0168749Y0118416D01*
X0168610Y0118495D01*
X0168472Y0118578D01*
X0168337Y0118665D01*
X0168204Y0118755D01*
X0168073Y0118848D01*
X0167944Y0118944D01*
X0167818Y0119044D01*
X0167694Y0119147D01*
X0167573Y0119252D01*
X0167455Y0119361D01*
X0167339Y0119472D01*
X0167226Y0119587D01*
X0167116Y0119704D01*
X0167009Y0119823D01*
X0166905Y0119946D01*
X0166804Y0120071D01*
X0166706Y0120198D01*
X0166611Y0120328D01*
X0166520Y0120460D01*
X0166431Y0120594D01*
X0166346Y0120731D01*
X0166265Y0120869D01*
X0166187Y0121010D01*
X0166112Y0121152D01*
X0166041Y0121296D01*
X0165974Y0121442D01*
X0165910Y0121590D01*
X0165850Y0121739D01*
X0165794Y0121889D01*
X0165741Y0122041D01*
X0165692Y0122194D01*
X0165647Y0122348D01*
X0165606Y0122503D01*
X0165568Y0122660D01*
X0165535Y0122817D01*
X0165505Y0122975D01*
X0165479Y0123133D01*
X0165458Y0123293D01*
X0165440Y0123452D01*
X0165426Y0123612D01*
X0165416Y0123773D01*
X0165410Y0123933D01*
X0165408Y0124094D01*
D15*
X0159204Y0124270D02*
X0159204Y0125804D01*
X0158437Y0126572D01*
X0157670Y0126572D01*
X0156902Y0125804D01*
X0156902Y0123502D01*
X0158437Y0123502D01*
X0159204Y0124270D01*
X0156902Y0123502D02*
X0155368Y0125037D01*
X0154600Y0126572D01*
X0155368Y0121968D02*
X0154600Y0121200D01*
X0154600Y0119666D01*
X0155368Y0118898D01*
X0156135Y0118898D01*
X0156902Y0119666D01*
X0156902Y0121200D01*
X0157670Y0121968D01*
X0158437Y0121968D01*
X0159204Y0121200D01*
X0159204Y0119666D01*
X0158437Y0118898D01*
X0159204Y0117364D02*
X0159204Y0114294D01*
X0154600Y0114294D01*
X0154600Y0117364D01*
X0156902Y0115829D02*
X0156902Y0114294D01*
X0153833Y0120433D02*
X0159972Y0120433D01*
X0233022Y0083934D02*
X0233022Y0081532D01*
X0234824Y0081532D01*
X0234223Y0082733D01*
X0234223Y0083334D01*
X0234824Y0083934D01*
X0236025Y0083934D01*
X0236625Y0083334D01*
X0236625Y0082133D01*
X0236025Y0081532D01*
X0236025Y0080278D02*
X0236025Y0079678D01*
X0236625Y0079678D01*
X0236625Y0080278D01*
X0236025Y0080278D01*
X0236625Y0080278D02*
X0237826Y0079077D01*
X0236625Y0075394D02*
X0236025Y0075394D01*
X0233623Y0077796D01*
X0233022Y0077796D01*
X0233022Y0075394D01*
X0233022Y0072912D02*
X0236625Y0072912D01*
X0236625Y0071711D02*
X0236625Y0074113D01*
X0234223Y0071711D02*
X0233022Y0072912D01*
X0234223Y0070430D02*
X0233022Y0069229D01*
X0234223Y0068028D01*
X0236625Y0068028D01*
X0234824Y0068028D02*
X0234824Y0070430D01*
X0234223Y0070430D02*
X0236625Y0070430D01*
X0236625Y0085216D02*
X0234223Y0085216D01*
X0234223Y0085816D01*
X0234824Y0086417D01*
X0234223Y0087017D01*
X0234824Y0087618D01*
X0236625Y0087618D01*
X0236625Y0086417D02*
X0234824Y0086417D01*
X0234223Y0088899D02*
X0234223Y0089499D01*
X0234824Y0090100D01*
X0234223Y0090700D01*
X0234824Y0091301D01*
X0236625Y0091301D01*
X0236625Y0090100D02*
X0234824Y0090100D01*
X0234223Y0088899D02*
X0236625Y0088899D01*
D16*
X0231825Y0092882D02*
X0199325Y0092882D01*
X0199325Y0056882D01*
X0231825Y0056882D01*
X0231825Y0092882D01*
D17*
X0223721Y0087990D02*
X0227925Y0083786D01*
X0228975Y0083786D01*
X0227925Y0081544D02*
X0226874Y0081544D01*
X0225823Y0080494D01*
X0225823Y0078392D01*
X0224772Y0077341D01*
X0223721Y0077341D01*
X0222670Y0078392D01*
X0222670Y0080494D01*
X0223721Y0081544D01*
X0222670Y0083786D02*
X0222670Y0087990D01*
X0223721Y0087990D01*
X0227925Y0081544D02*
X0228975Y0080494D01*
X0228975Y0078392D01*
X0227925Y0077341D01*
X0228975Y0075099D02*
X0228975Y0070895D01*
X0222670Y0070895D01*
X0222670Y0075099D01*
X0225823Y0072997D02*
X0225823Y0070895D01*
X0221619Y0079443D02*
X0230026Y0079443D01*
X0191290Y0115862D02*
X0184985Y0115862D01*
X0184985Y0120065D01*
X0186036Y0122307D02*
X0184985Y0123358D01*
X0184985Y0125460D01*
X0186036Y0126511D01*
X0188138Y0125460D02*
X0188138Y0123358D01*
X0187087Y0122307D01*
X0186036Y0122307D01*
X0183934Y0124409D02*
X0192341Y0124409D01*
X0191290Y0123358D02*
X0191290Y0125460D01*
X0190240Y0126511D01*
X0189189Y0126511D01*
X0188138Y0125460D01*
X0187087Y0128753D02*
X0184985Y0130855D01*
X0191290Y0130855D01*
X0191290Y0132956D02*
X0191290Y0128753D01*
X0191290Y0123358D02*
X0190240Y0122307D01*
X0191290Y0120065D02*
X0191290Y0115862D01*
X0188138Y0115862D02*
X0188138Y0117964D01*
X0009983Y0110305D02*
X0009983Y0108203D01*
X0008932Y0107152D01*
X0006831Y0107152D02*
X0005780Y0109254D01*
X0005780Y0110305D01*
X0006831Y0111356D01*
X0008932Y0111356D01*
X0009983Y0110305D01*
X0006831Y0107152D02*
X0003678Y0107152D01*
X0003678Y0111356D01*
X0004729Y0104911D02*
X0003678Y0103860D01*
X0003678Y0101758D01*
X0004729Y0100707D01*
X0004729Y0098465D02*
X0003678Y0097414D01*
X0003678Y0095312D01*
X0004729Y0094262D01*
X0005780Y0094262D01*
X0006831Y0095312D01*
X0006831Y0097414D01*
X0007882Y0098465D01*
X0008932Y0098465D01*
X0009983Y0097414D01*
X0009983Y0095312D01*
X0008932Y0094262D01*
X0009983Y0092020D02*
X0009983Y0087816D01*
X0003678Y0087816D01*
X0003678Y0092020D01*
X0006831Y0089918D02*
X0006831Y0087816D01*
X0002627Y0096363D02*
X0011034Y0096363D01*
X0009983Y0100707D02*
X0005780Y0104911D01*
X0004729Y0104911D01*
X0009983Y0104911D02*
X0009983Y0100707D01*
X0010298Y0153800D02*
X0003993Y0153800D01*
X0003993Y0158004D01*
X0005044Y0160246D02*
X0003993Y0161297D01*
X0003993Y0163398D01*
X0005044Y0164449D01*
X0007146Y0163398D02*
X0008196Y0164449D01*
X0009247Y0164449D01*
X0010298Y0163398D01*
X0010298Y0161297D01*
X0009247Y0160246D01*
X0007146Y0161297D02*
X0007146Y0163398D01*
X0007146Y0161297D02*
X0006095Y0160246D01*
X0005044Y0160246D01*
X0002942Y0162348D02*
X0011349Y0162348D01*
X0010298Y0166691D02*
X0010298Y0170895D01*
X0010298Y0168793D02*
X0003993Y0168793D01*
X0006095Y0166691D01*
X0007146Y0173137D02*
X0003993Y0173137D01*
X0003993Y0177340D01*
X0006095Y0176289D02*
X0007146Y0177340D01*
X0009247Y0177340D01*
X0010298Y0176289D01*
X0010298Y0174188D01*
X0009247Y0173137D01*
X0007146Y0173137D02*
X0006095Y0175239D01*
X0006095Y0176289D01*
X0010298Y0158004D02*
X0010298Y0153800D01*
X0007146Y0153800D02*
X0007146Y0155902D01*
D18*
X0184575Y0084882D03*
X0184575Y0074882D03*
X0184575Y0064882D03*
D19*
X0191325Y0064882D03*
X0191325Y0074882D03*
X0191325Y0084882D03*
D20*
X0239325Y0074882D02*
X0239327Y0075043D01*
X0239333Y0075203D01*
X0239343Y0075364D01*
X0239357Y0075524D01*
X0239375Y0075684D01*
X0239396Y0075843D01*
X0239422Y0076002D01*
X0239452Y0076160D01*
X0239485Y0076317D01*
X0239523Y0076474D01*
X0239564Y0076629D01*
X0239609Y0076783D01*
X0239658Y0076936D01*
X0239711Y0077088D01*
X0239767Y0077239D01*
X0239828Y0077388D01*
X0239891Y0077536D01*
X0239959Y0077682D01*
X0240030Y0077826D01*
X0240104Y0077968D01*
X0240182Y0078109D01*
X0240264Y0078247D01*
X0240349Y0078384D01*
X0240437Y0078518D01*
X0240529Y0078650D01*
X0240624Y0078780D01*
X0240722Y0078908D01*
X0240823Y0079033D01*
X0240927Y0079155D01*
X0241034Y0079275D01*
X0241144Y0079392D01*
X0241257Y0079507D01*
X0241373Y0079618D01*
X0241492Y0079727D01*
X0241613Y0079832D01*
X0241737Y0079935D01*
X0241863Y0080035D01*
X0241991Y0080131D01*
X0242122Y0080224D01*
X0242256Y0080314D01*
X0242391Y0080401D01*
X0242529Y0080484D01*
X0242668Y0080564D01*
X0242810Y0080640D01*
X0242953Y0080713D01*
X0243098Y0080782D01*
X0243245Y0080848D01*
X0243393Y0080910D01*
X0243543Y0080968D01*
X0243694Y0081023D01*
X0243847Y0081074D01*
X0244001Y0081121D01*
X0244156Y0081164D01*
X0244312Y0081203D01*
X0244468Y0081239D01*
X0244626Y0081270D01*
X0244784Y0081298D01*
X0244943Y0081322D01*
X0245103Y0081342D01*
X0245263Y0081358D01*
X0245423Y0081370D01*
X0245584Y0081378D01*
X0245745Y0081382D01*
X0245905Y0081382D01*
X0246066Y0081378D01*
X0246227Y0081370D01*
X0246387Y0081358D01*
X0246547Y0081342D01*
X0246707Y0081322D01*
X0246866Y0081298D01*
X0247024Y0081270D01*
X0247182Y0081239D01*
X0247338Y0081203D01*
X0247494Y0081164D01*
X0247649Y0081121D01*
X0247803Y0081074D01*
X0247956Y0081023D01*
X0248107Y0080968D01*
X0248257Y0080910D01*
X0248405Y0080848D01*
X0248552Y0080782D01*
X0248697Y0080713D01*
X0248840Y0080640D01*
X0248982Y0080564D01*
X0249121Y0080484D01*
X0249259Y0080401D01*
X0249394Y0080314D01*
X0249528Y0080224D01*
X0249659Y0080131D01*
X0249787Y0080035D01*
X0249913Y0079935D01*
X0250037Y0079832D01*
X0250158Y0079727D01*
X0250277Y0079618D01*
X0250393Y0079507D01*
X0250506Y0079392D01*
X0250616Y0079275D01*
X0250723Y0079155D01*
X0250827Y0079033D01*
X0250928Y0078908D01*
X0251026Y0078780D01*
X0251121Y0078650D01*
X0251213Y0078518D01*
X0251301Y0078384D01*
X0251386Y0078247D01*
X0251468Y0078109D01*
X0251546Y0077968D01*
X0251620Y0077826D01*
X0251691Y0077682D01*
X0251759Y0077536D01*
X0251822Y0077388D01*
X0251883Y0077239D01*
X0251939Y0077088D01*
X0251992Y0076936D01*
X0252041Y0076783D01*
X0252086Y0076629D01*
X0252127Y0076474D01*
X0252165Y0076317D01*
X0252198Y0076160D01*
X0252228Y0076002D01*
X0252254Y0075843D01*
X0252275Y0075684D01*
X0252293Y0075524D01*
X0252307Y0075364D01*
X0252317Y0075203D01*
X0252323Y0075043D01*
X0252325Y0074882D01*
X0252323Y0074721D01*
X0252317Y0074561D01*
X0252307Y0074400D01*
X0252293Y0074240D01*
X0252275Y0074080D01*
X0252254Y0073921D01*
X0252228Y0073762D01*
X0252198Y0073604D01*
X0252165Y0073447D01*
X0252127Y0073290D01*
X0252086Y0073135D01*
X0252041Y0072981D01*
X0251992Y0072828D01*
X0251939Y0072676D01*
X0251883Y0072525D01*
X0251822Y0072376D01*
X0251759Y0072228D01*
X0251691Y0072082D01*
X0251620Y0071938D01*
X0251546Y0071796D01*
X0251468Y0071655D01*
X0251386Y0071517D01*
X0251301Y0071380D01*
X0251213Y0071246D01*
X0251121Y0071114D01*
X0251026Y0070984D01*
X0250928Y0070856D01*
X0250827Y0070731D01*
X0250723Y0070609D01*
X0250616Y0070489D01*
X0250506Y0070372D01*
X0250393Y0070257D01*
X0250277Y0070146D01*
X0250158Y0070037D01*
X0250037Y0069932D01*
X0249913Y0069829D01*
X0249787Y0069729D01*
X0249659Y0069633D01*
X0249528Y0069540D01*
X0249394Y0069450D01*
X0249259Y0069363D01*
X0249121Y0069280D01*
X0248982Y0069200D01*
X0248840Y0069124D01*
X0248697Y0069051D01*
X0248552Y0068982D01*
X0248405Y0068916D01*
X0248257Y0068854D01*
X0248107Y0068796D01*
X0247956Y0068741D01*
X0247803Y0068690D01*
X0247649Y0068643D01*
X0247494Y0068600D01*
X0247338Y0068561D01*
X0247182Y0068525D01*
X0247024Y0068494D01*
X0246866Y0068466D01*
X0246707Y0068442D01*
X0246547Y0068422D01*
X0246387Y0068406D01*
X0246227Y0068394D01*
X0246066Y0068386D01*
X0245905Y0068382D01*
X0245745Y0068382D01*
X0245584Y0068386D01*
X0245423Y0068394D01*
X0245263Y0068406D01*
X0245103Y0068422D01*
X0244943Y0068442D01*
X0244784Y0068466D01*
X0244626Y0068494D01*
X0244468Y0068525D01*
X0244312Y0068561D01*
X0244156Y0068600D01*
X0244001Y0068643D01*
X0243847Y0068690D01*
X0243694Y0068741D01*
X0243543Y0068796D01*
X0243393Y0068854D01*
X0243245Y0068916D01*
X0243098Y0068982D01*
X0242953Y0069051D01*
X0242810Y0069124D01*
X0242668Y0069200D01*
X0242529Y0069280D01*
X0242391Y0069363D01*
X0242256Y0069450D01*
X0242122Y0069540D01*
X0241991Y0069633D01*
X0241863Y0069729D01*
X0241737Y0069829D01*
X0241613Y0069932D01*
X0241492Y0070037D01*
X0241373Y0070146D01*
X0241257Y0070257D01*
X0241144Y0070372D01*
X0241034Y0070489D01*
X0240927Y0070609D01*
X0240823Y0070731D01*
X0240722Y0070856D01*
X0240624Y0070984D01*
X0240529Y0071114D01*
X0240437Y0071246D01*
X0240349Y0071380D01*
X0240264Y0071517D01*
X0240182Y0071655D01*
X0240104Y0071796D01*
X0240030Y0071938D01*
X0239959Y0072082D01*
X0239891Y0072228D01*
X0239828Y0072376D01*
X0239767Y0072525D01*
X0239711Y0072676D01*
X0239658Y0072828D01*
X0239609Y0072981D01*
X0239564Y0073135D01*
X0239523Y0073290D01*
X0239485Y0073447D01*
X0239452Y0073604D01*
X0239422Y0073762D01*
X0239396Y0073921D01*
X0239375Y0074080D01*
X0239357Y0074240D01*
X0239343Y0074400D01*
X0239333Y0074561D01*
X0239327Y0074721D01*
X0239325Y0074882D01*
D21*
X0273825Y0073953D02*
X0276825Y0073953D01*
X0279825Y0073953D01*
X0279825Y0071953D02*
X0276825Y0071953D01*
X0273825Y0071953D01*
X0284495Y0071992D02*
X0287495Y0071992D01*
X0290495Y0071992D01*
X0287495Y0071992D01*
X0284495Y0071992D01*
X0284495Y0073992D02*
X0287495Y0073992D01*
X0290495Y0073992D01*
X0287495Y0073992D01*
X0284495Y0073992D01*
X0076333Y0078248D02*
X0071333Y0078248D01*
X0066333Y0078248D01*
X0066333Y0083248D01*
X0071333Y0083248D01*
X0076333Y0083248D01*
X0037833Y0080748D02*
X0035333Y0078248D01*
X0034033Y0077048D01*
X0034348Y0143032D02*
X0035648Y0144232D01*
X0038148Y0146732D01*
X0066648Y0144232D02*
X0071648Y0144232D01*
X0076648Y0144232D01*
X0076648Y0149232D02*
X0071648Y0149232D01*
X0066648Y0149232D01*
X0066648Y0144232D01*
D22*
X0170153Y0147815D02*
X0170153Y0150315D01*
X0170153Y0152815D01*
X0172653Y0152815D02*
X0172653Y0150315D01*
X0172653Y0147815D01*
D23*
X0106196Y0132242D03*
X0106196Y0163742D03*
X0106550Y0097955D03*
X0106550Y0066455D03*
D24*
X0106550Y0070705D03*
X0106196Y0136492D03*
D25*
X0207022Y0162439D03*
X0207022Y0164939D03*
X0207022Y0167439D03*
X0217022Y0167439D03*
X0217022Y0164939D03*
X0217022Y0162439D03*
X0227022Y0162439D03*
X0227022Y0164939D03*
X0227022Y0167439D03*
X0237022Y0167439D03*
X0237022Y0164939D03*
X0237022Y0162439D03*
X0247022Y0162439D03*
X0247022Y0164939D03*
X0247022Y0167439D03*
M02*
