G75*
%MOIN*%
%OFA0B0*%
%FSLAX25Y25*%
%IPPOS*%
%LPD*%
%AMOC8*
5,1,8,0,0,1.08239X$1,22.5*
%
%ADD10C,0.07040*%
%ADD11OC8,0.07040*%
%ADD12C,0.08661*%
%ADD13C,0.09680*%
%ADD14C,0.08800*%
%ADD15C,0.08600*%
%ADD16C,0.07040*%
%ADD17C,0.10340*%
%ADD18C,0.11200*%
%ADD19C,0.11811*%
%ADD20C,0.10236*%
%ADD21C,0.01994*%
%ADD22C,0.10000*%
%ADD23R,0.10000X0.10000*%
D10*
X0272404Y0094094D03*
X0272404Y0094094D03*
X0291404Y0094094D03*
X0291404Y0094094D03*
D11*
X0313991Y0089567D03*
X0287495Y0077992D03*
X0287495Y0077992D03*
X0276825Y0077953D03*
X0276825Y0067953D03*
X0287495Y0067992D03*
X0287495Y0067992D03*
X0353991Y0089567D03*
X0370448Y0089291D03*
X0410448Y0089291D03*
X0191983Y0097795D03*
X0151983Y0097795D03*
X0161353Y0150315D03*
X0181353Y0150315D03*
D12*
X0180762Y0136890D03*
X0163046Y0136890D03*
X0163046Y0111299D03*
X0180762Y0111299D03*
D13*
X0181665Y0084882D02*
X0171985Y0084882D01*
X0171985Y0074882D02*
X0181665Y0074882D01*
X0181665Y0064882D02*
X0171985Y0064882D01*
D14*
X0158903Y0064449D02*
X0150103Y0064449D01*
X0150103Y0074449D02*
X0158903Y0074449D01*
X0207101Y0080915D02*
X0207101Y0089715D01*
X0217101Y0089715D02*
X0217101Y0080915D01*
X0227101Y0080915D02*
X0227101Y0089715D01*
X0237101Y0089715D02*
X0237101Y0080915D01*
D15*
X0237140Y0106212D02*
X0237140Y0114812D01*
X0227140Y0114812D02*
X0227140Y0106212D01*
X0217140Y0106212D02*
X0217140Y0114812D01*
X0207140Y0114812D02*
X0207140Y0106212D01*
X0197140Y0106212D02*
X0197140Y0114812D01*
X0197140Y0136212D02*
X0197140Y0144812D01*
X0207140Y0144812D02*
X0207140Y0136212D01*
X0217140Y0136212D02*
X0217140Y0144812D01*
X0227140Y0144812D02*
X0227140Y0136212D01*
X0237140Y0136212D02*
X0237140Y0144812D01*
X0247140Y0144812D02*
X0247140Y0136212D01*
X0257140Y0136212D02*
X0257140Y0144812D01*
X0267140Y0144812D02*
X0267140Y0136212D01*
X0277140Y0136212D02*
X0277140Y0144812D01*
X0287140Y0144812D02*
X0287140Y0136212D01*
X0297140Y0136212D02*
X0297140Y0144812D01*
X0307140Y0144812D02*
X0307140Y0136212D01*
X0317140Y0136212D02*
X0317140Y0144812D01*
X0327140Y0144812D02*
X0327140Y0136212D01*
X0327140Y0114812D02*
X0327140Y0106212D01*
X0317140Y0106212D02*
X0317140Y0114812D01*
X0307140Y0114812D02*
X0307140Y0106212D01*
X0297140Y0106212D02*
X0297140Y0114812D01*
X0287140Y0114812D02*
X0287140Y0106212D01*
X0277140Y0106212D02*
X0277140Y0114812D01*
X0267140Y0114812D02*
X0267140Y0106212D01*
X0257140Y0106212D02*
X0257140Y0114812D01*
X0247140Y0114812D02*
X0247140Y0106212D01*
D16*
X0318991Y0076591D02*
X0318991Y0069551D01*
X0328991Y0069551D02*
X0328991Y0076591D01*
X0338991Y0076591D02*
X0338991Y0069551D01*
X0348991Y0069551D02*
X0348991Y0076591D01*
X0374109Y0076591D02*
X0374109Y0069551D01*
X0384109Y0069551D02*
X0384109Y0076591D01*
X0394109Y0076591D02*
X0394109Y0069551D01*
X0404109Y0069551D02*
X0404109Y0076591D01*
X0404109Y0046591D02*
X0404109Y0039551D01*
X0394109Y0039551D02*
X0394109Y0046591D01*
X0384109Y0046591D02*
X0384109Y0039551D01*
X0374109Y0039551D02*
X0374109Y0046591D01*
X0348991Y0046591D02*
X0348991Y0039551D01*
X0338991Y0039551D02*
X0338991Y0046591D01*
X0328991Y0046591D02*
X0328991Y0039551D01*
X0318991Y0039551D02*
X0318991Y0046591D01*
X0247022Y0149669D02*
X0247022Y0156709D01*
X0237022Y0156709D02*
X0237022Y0149669D01*
X0227022Y0149669D02*
X0227022Y0156709D01*
X0217022Y0156709D02*
X0217022Y0149669D01*
X0207022Y0149669D02*
X0207022Y0156709D01*
X0207022Y0179669D02*
X0207022Y0186709D01*
X0217022Y0186709D02*
X0217022Y0179669D01*
X0227022Y0179669D02*
X0227022Y0186709D01*
X0237022Y0186709D02*
X0237022Y0179669D01*
X0247022Y0179669D02*
X0247022Y0186709D01*
X0106196Y0171512D02*
X0106196Y0164472D01*
X0106196Y0131512D02*
X0106196Y0124472D01*
X0106550Y0105725D02*
X0106550Y0098685D01*
X0106550Y0065725D02*
X0106550Y0058685D01*
D17*
X0028203Y0032670D02*
X0028203Y0022330D01*
X0048203Y0022330D02*
X0048203Y0032670D01*
X0068203Y0032670D02*
X0068203Y0022330D01*
X0069266Y0194653D02*
X0069266Y0204993D01*
X0049266Y0204993D02*
X0049266Y0194653D01*
X0029266Y0194653D02*
X0029266Y0204993D01*
D18*
X0030048Y0170232D02*
X0041248Y0170232D01*
X0078048Y0170232D02*
X0089248Y0170232D01*
X0086048Y0146732D02*
X0097248Y0146732D01*
X0089248Y0123232D02*
X0078048Y0123232D01*
X0041248Y0123232D02*
X0030048Y0123232D01*
X0029733Y0104248D02*
X0040933Y0104248D01*
X0077733Y0104248D02*
X0088933Y0104248D01*
X0085733Y0080748D02*
X0096933Y0080748D01*
X0088933Y0057248D02*
X0077733Y0057248D01*
X0040933Y0057248D02*
X0029733Y0057248D01*
D19*
X0152298Y0097638D03*
X0154660Y0085433D03*
X0192140Y0096811D03*
X0180841Y0111181D03*
X0162928Y0111220D03*
X0196825Y0130669D03*
X0180802Y0136811D03*
X0163007Y0136890D03*
X0161432Y0150394D03*
X0181432Y0150197D03*
X0273794Y0094016D03*
X0293479Y0094016D03*
X0313755Y0089173D03*
X0289542Y0078268D03*
X0276392Y0078110D03*
X0276510Y0065354D03*
X0289621Y0065315D03*
X0266314Y0055197D03*
X0246944Y0055472D03*
X0225762Y0028622D03*
X0207062Y0028622D03*
X0354227Y0089882D03*
X0371196Y0089646D03*
X0410526Y0089252D03*
X0361983Y0051969D03*
X0362180Y0021575D03*
X0343912Y0183189D03*
D20*
X0237101Y0120709D03*
D21*
X0237101Y0120669D03*
X0237140Y0110512D03*
X0227140Y0110551D03*
X0217140Y0110512D03*
X0207180Y0110472D03*
X0197140Y0110551D03*
X0180802Y0111260D03*
X0162967Y0111260D03*
X0152259Y0097677D03*
X0192101Y0096850D03*
X0207140Y0085354D03*
X0217101Y0085354D03*
X0227219Y0085236D03*
X0237022Y0085354D03*
X0247140Y0110512D03*
X0257140Y0110512D03*
X0267140Y0110551D03*
X0277219Y0110472D03*
X0287140Y0110472D03*
X0297101Y0110512D03*
X0307101Y0110512D03*
X0317140Y0110512D03*
X0327180Y0110512D03*
X0313755Y0089173D03*
X0319030Y0073071D03*
X0328991Y0073071D03*
X0338951Y0073071D03*
X0348951Y0073071D03*
X0374109Y0073071D03*
X0384148Y0073110D03*
X0394148Y0073071D03*
X0404148Y0073071D03*
X0361983Y0052047D03*
X0349030Y0043071D03*
X0339030Y0043110D03*
X0328951Y0043071D03*
X0318991Y0043071D03*
X0394109Y0043071D03*
X0404109Y0043071D03*
X0354227Y0089882D03*
X0327180Y0140512D03*
X0317140Y0140433D03*
X0307101Y0140433D03*
X0297101Y0140472D03*
X0287101Y0140512D03*
X0277101Y0140512D03*
X0267140Y0140512D03*
X0257140Y0140512D03*
X0247101Y0140512D03*
X0237140Y0140512D03*
X0227140Y0140512D03*
X0217180Y0140512D03*
X0207140Y0140512D03*
X0197140Y0140512D03*
X0196825Y0130669D03*
X0180802Y0136811D03*
X0162928Y0136929D03*
X0161392Y0150472D03*
X0181392Y0150236D03*
X0207022Y0153150D03*
X0217022Y0153189D03*
X0227022Y0153189D03*
X0237022Y0153228D03*
X0247022Y0153228D03*
X0247022Y0183150D03*
X0237022Y0183189D03*
X0227062Y0183189D03*
X0217022Y0183189D03*
X0207022Y0183150D03*
X0343912Y0183189D03*
D22*
X0228046Y0063740D03*
X0222022Y0063622D03*
X0210211Y0063622D03*
X0201707Y0063661D03*
D23*
X0205999Y0063701D03*
X0225014Y0063701D03*
M02*
